<?xml version="1.0" encoding="UTF-8"?>
<svg width="12px" height="20px" viewBox="0 0 12 20" version="1.1" xmlns="http://www.w3.org/2000/svg" xmlns:xlink="http://www.w3.org/1999/xlink">
    <!-- Generator: Sketch 64 (93537) - https://sketch.com -->
    <title>btn-left@2x</title>
    <desc>Created with Sketch.</desc>
    <g id="Landing" stroke="none" stroke-width="1" fill="none" fill-rule="evenodd">
        <g id="Topbaby-UI-Main" transform="translate(-166.000000, -2061.000000)" fill="#272829" fill-rule="nonzero">
            <g id="4-screen" transform="translate(165.000000, 1626.000000)">
                <g id="GRACO" transform="translate(1.000000, 114.000000)">
                    <g id="btn-left" transform="translate(0.000000, 321.000000)">
                        <g id="next" transform="translate(6.000000, 10.000000) rotate(-180.000000) translate(-6.000000, -10.000000) translate(0.000000, 0.000000)">
                            <path d="M11.4503252,9.2196748 L2.55,0.319512195 C2.34414634,0.113495935 2.06934959,0 1.77634146,0 C1.48333333,0 1.20853659,0.113495935 1.00268293,0.319512195 L0.347235772,0.974796748 C-0.0792682927,1.40178862 -0.0792682927,2.09577236 0.347235772,2.52211382 L7.82105691,9.99593496 L0.338943089,17.4780488 C0.133089431,17.684065 0.0194308943,17.9586992 0.0194308943,18.2515447 C0.0194308943,18.5447154 0.133089431,18.8193496 0.338943089,19.0255285 L0.994390244,19.6806504 C1.2004065,19.8866667 1.47504065,20.0001626 1.76804878,20.0001626 C2.06105691,20.0001626 2.33585366,19.8866667 2.54170732,19.6806504 L11.4503252,10.7723577 C11.6566667,10.5656911 11.77,10.2897561 11.7693524,9.99642276 C11.77,9.70195122 11.6566667,9.42617886 11.4503252,9.2196748 Z" id="Path"></path>
                        </g>
                    </g>
                </g>
            </g>
        </g>
    </g>
</svg>