<?xml version="1.0" encoding="UTF-8"?>
<svg width="16px" height="12px" viewBox="0 0 16 12" version="1.1" xmlns="http://www.w3.org/2000/svg" xmlns:xlink="http://www.w3.org/1999/xlink">
    <!-- Generator: Sketch 64 (93537) - https://sketch.com -->
    <title>email@2x</title>
    <desc>Created with Sketch.</desc>
    <g id="Landing" stroke="none" stroke-width="1" fill="none" fill-rule="evenodd">
        <g id="Topbaby-UI-Main" transform="translate(-926.000000, -6252.000000)" fill="#FFFFFF" fill-rule="nonzero">
            <g id="footer" transform="translate(0.000000, 6054.000000)">
                <g id="email" transform="translate(926.000000, 194.000000)">
                    <g transform="translate(0.000000, 4.000000)" id="Path">
                        <path d="M0.334,0.973625 C2.5299375,2.83334375 6.383125,6.10515625 7.515625,7.1253125 C7.66765625,7.263 7.83071875,7.333 8,7.333 C8.1689375,7.333 8.33171875,7.26365625 8.48340625,7.126625 C9.616875,6.10546875 13.4700625,2.83334375 15.6660313,0.973625 C15.80275,0.8580625 15.8235938,0.6549375 15.7129063,0.51365625 C15.4570313,0.1871875 15.0755313,0 14.6666563,0 L1.33334375,0 C0.9245,0 0.54296875,0.1871875 0.287125,0.5136875 C0.1764375,0.6549375 0.19728125,0.8580625 0.334,0.973625 Z"></path>
                        <path d="M15.8066562,1.9814375 C15.6885,1.9264375 15.5495,1.945625 15.4511875,2.029625 C13.0159375,4.0940625 9.907875,6.74025 8.93,7.62140625 C8.38115625,8.11684375 7.6194375,8.11684375 7.0693125,7.62075 C6.027,6.681625 2.53675,3.7145 0.5488125,2.02959375 C0.44984375,1.94559375 0.31053125,1.9270625 0.19334375,1.98140625 C0.07553125,2.036125 0,2.15396875 0,2.28384375 L0,10.6666562 C0,11.4020312 0.59796875,12 1.33334375,12 L14.6666875,12 C15.4020313,12 16,11.4020312 16,10.6666562 L16,2.28384375 C16,2.15396875 15.9244688,2.0358125 15.8066562,1.9814375 Z"></path>
                    </g>
                </g>
            </g>
        </g>
    </g>
</svg>