<?xml version="1.0" encoding="UTF-8"?>
<svg width="120px" height="112px" viewBox="0 0 120 112" version="1.1" xmlns="http://www.w3.org/2000/svg" xmlns:xlink="http://www.w3.org/1999/xlink">
    <!-- Generator: Sketch 64 (93537) - https://sketch.com -->
    <title>icon-Top-Preis@2x</title>
    <desc>Created with Sketch.</desc>
    <g id="Landing" stroke="none" stroke-width="1" fill="none" fill-rule="evenodd">
        <g id="Topbaby-UI-Main" transform="translate(-250.000000, -825.000000)" fill-rule="nonzero">
            <g id="2-screen" transform="translate(220.000000, 681.000000)">
                <g id="Top-Preis" transform="translate(0.000000, 114.000000)">
                    <g id="icon-Top-Preis" transform="translate(30.000000, 30.000000)">
                        <circle id="Oval" fill="#E9EEFF" cx="21.1111111" cy="66.7111111" r="21.1111111"></circle>
                        <circle id="Oval" fill="#E9EEFF" cx="58.6888889" cy="18.1555556" r="18.1555556"></circle>
                        <circle id="Oval" fill="#E9EEFF" cx="88.7666667" cy="81.5" r="30.5"></circle>
                        <path d="M91.446793,105.449243 L34.3209717,90.2770572 C32.65858,89.8218916 31.751821,88.1529512 32.2052005,86.6357326 L41.7261707,50.3742091 C42.1795503,48.7052687 43.8419419,47.7949376 45.353207,48.2501031 L102.479028,63.4222887 C104.14142,63.8774543 105.048179,65.5463947 104.594799,67.0636133 L95.0738293,103.325137 C94.7715762,104.842355 93.1091846,105.904408 91.446793,105.449243 Z" id="Path" fill="#E9EEFF"></path>
                        <path d="M88.4356751,98.7710731 L32.0888889,83.9756067 L41.7829596,47.2888889 L99.6444444,62.5372778 L90.2533134,97.7142541 C90.1018435,98.4691248 89.3444943,98.9220472 88.4356751,98.7710731 Z" id="Path" fill="#FFFFFF"></path>
                        <path d="M91.7842655,106.4 C91.4815998,106.4 91.0276013,106.4 90.7249355,106.248069 L33.5211155,91.0549921 C31.2511227,90.447269 30.0404598,88.1683074 30.4944584,85.8893458 L40.0284284,49.5778914 C40.6337598,47.2989299 42.9037527,46.0834837 45.1737455,46.539276 L102.377566,61.7323532 L102.377566,61.7323532 C103.436896,62.0362147 104.344893,62.6439378 104.950224,63.7074532 C105.555556,64.6190378 105.706888,65.834484 105.404223,66.8979994 L95.8702527,103.209454 C95.567587,104.272969 94.9622555,105.184554 93.9029255,105.792277 C93.2975941,106.248069 92.5409298,106.4 91.7842655,106.4 Z M44.2657484,48.8182376 C43.3577512,48.8182376 42.6010869,49.4259607 42.4497541,50.1856145 L32.9157841,86.4970689 C32.6131184,87.5605843 33.2184498,88.6240997 34.2777798,88.7760305 L91.4815998,103.969108 C91.9355984,104.121038 92.5409298,103.969108 92.8435955,103.817177 C93.2975941,103.513315 93.6002598,103.209454 93.7515927,102.601731 L103.285563,66.2902763 C103.436896,65.834484 103.285563,65.2267609 103.13423,64.9228994 C102.831564,64.4671071 102.528898,64.1632455 101.923567,64.0113147 L44.7197469,48.8182376 C44.5684141,48.8182376 44.4170812,48.8182376 44.2657484,48.8182376 Z" id="Shape" fill="#7699EB"></path>
                        <path d="M47.5564033,66.000655 L56.6789295,68.3716076 C57.4520249,68.5197921 58.3797394,68.0752385 58.5343585,67.3343158 L59.9259303,62.4442261 C60.0805494,61.7033034 59.6166921,60.8141962 58.8435967,60.6660117 L49.7210705,58.2950591 C48.9479751,58.1468745 48.0202606,58.5914282 47.8656415,59.3323508 L46.4740697,64.2224406 C46.3194506,64.9633632 46.7833079,65.7042859 47.5564033,66.000655 Z" id="Path" fill="#E9EEFF"></path>
                        <path d="M46.4444444,62.9552638 L54.4425397,64.9943161 C55.2266667,65.1399627 56.167619,64.7030229 56.3244444,63.9747899 L57.4222222,60.3336251 L49.424127,58.2945728 C48.64,58.1489262 47.6990476,58.585866 47.5422222,59.314099 L46.4444444,62.9552638 Z" id="Path" fill="#FFFFFF"></path>
                        <path d="M56.6646583,70.0888889 C56.509183,70.0888889 56.1982326,70.0888889 56.0427574,69.9377 L46.8697194,67.5186772 C46.0923433,67.3674883 45.6259177,66.9139215 45.159492,66.3091658 C44.6930664,65.7044101 44.6930664,64.9484655 44.8485416,64.3437099 L46.2478186,59.3544754 C46.558769,57.9937751 48.1135212,57.0866416 49.5127982,57.5402084 L58.6858361,59.9592311 C59.4632122,60.11042 59.9296379,60.5639868 60.3960635,61.1687425 C60.8624892,61.7734982 60.8624892,62.5294428 60.707014,63.1341985 L59.307737,68.1234329 C58.9967866,69.3329443 57.90846,70.0888889 56.6646583,70.0888889 Z M48.8908973,59.8080422 C48.7354221,59.8080422 48.7354221,59.8080422 48.7354221,59.8080422 C48.7354221,59.8080422 48.5799469,59.9592311 48.5799469,60.11042 L47.1806699,65.0996545 C47.1806699,65.2508434 47.1806699,65.4020323 47.1806699,65.4020323 C47.1806699,65.4020323 47.3361451,65.5532212 47.4916203,65.5532212 C47.4916203,65.5532212 47.4916203,65.5532212 47.4916203,65.5532212 L56.6646583,67.972244 C56.8201335,67.972244 56.8201335,67.972244 56.9756087,67.972244 C56.9756087,67.972244 57.1310839,67.8210551 57.1310839,67.6698661 L58.5303609,62.6806317 C58.5303609,62.5294428 58.5303609,62.3782539 58.5303609,62.3782539 C58.5303609,62.3782539 58.3748857,62.2270649 58.2194105,62.2270649 L48.8908973,59.8080422 C49.0463725,59.8080422 48.8908973,59.8080422 48.8908973,59.8080422 Z" id="Shape" fill="#7699EB"></path>
                        <path d="M77.4153068,92.0444444 C77.261199,92.0444444 77.261199,92.0444444 77.1070912,92.0444444 L59.0764776,87.4168234 C58.4600464,87.2675453 58.1518308,86.6704329 58.3059386,86.0733205 C58.4600464,85.4762081 59.0764776,85.1776519 59.6929088,85.32693 L77.7235224,89.9545511 C78.3399536,90.1038292 78.6481692,90.7009416 78.4940614,91.298054 C78.4940614,91.7458882 78.031738,92.0444444 77.4153068,92.0444444 Z" id="Path" fill="#7699EB"></path>
                        <path d="M53.8158192,85.2888889 C53.6679082,85.2888889 53.6679082,85.2888889 53.5199972,85.2888889 L45.5328033,83.1968182 C44.9411593,83.0473845 44.6453373,82.44965 44.7932483,81.8519156 C44.9411593,81.2541811 45.5328033,80.9553138 46.1244473,81.1047474 L54.1116412,83.1968182 C54.7032851,83.3462518 54.9991071,83.9439863 54.8511961,84.5417208 C54.7032851,84.9900216 54.2595521,85.2888889 53.8158192,85.2888889 Z" id="Path" fill="#7699EB"></path>
                        <path d="M51.2037913,76.8444444 C51.0450331,76.8444444 51.0450331,76.8444444 50.8862749,76.8444444 L43.9009146,74.9146411 C43.2658818,74.7538241 42.9483655,74.1105564 43.1071237,73.4672886 C43.2658818,72.8240208 43.9009146,72.5023869 44.5359473,72.6632038 L51.5213076,74.5930072 C52.1563404,74.7538241 52.4738568,75.3970919 52.3150986,76.0403597 C52.1563404,76.5228106 51.6800658,76.8444444 51.2037913,76.8444444 Z" id="Path" fill="#7699EB"></path>
                        <path d="M63.8704579,80.2222222 C63.7116997,80.2222222 63.7116997,80.2222222 63.5529415,80.2222222 L56.5675813,78.2924189 C55.9325485,78.1316019 55.6150321,77.4883341 55.7737903,76.8450664 C55.9325485,76.2017986 56.5675813,75.8801647 57.202614,76.0409816 L64.1879743,77.970785 C64.8230071,78.1316019 65.1405234,78.7748697 64.9817652,79.4181375 C64.8230071,79.9005883 64.3467325,80.2222222 63.8704579,80.2222222 Z" id="Path" fill="#7699EB"></path>
                        <path d="M77.381569,83.6 C77.2228108,83.6 77.2228108,83.6 77.0640527,83.6 L70.0786924,81.6701966 C69.4436596,81.5093797 69.1261432,80.8661119 69.2849014,80.2228441 C69.4436596,79.5795763 70.0786924,79.2579425 70.7137251,79.4187594 L77.6990854,81.3485628 C78.3341182,81.5093797 78.6516345,82.1526475 78.4928763,82.7959153 C78.4928763,83.2783661 78.0166018,83.6 77.381569,83.6 Z" id="Path" fill="#7699EB"></path>
                        <path d="M90.8926801,86.9777778 C90.733922,86.9777778 90.733922,86.9777778 90.5751638,86.9777778 L83.5898035,85.0479744 C82.9547707,84.8871575 82.6372544,84.2438897 82.7960125,83.6006219 C82.9547707,82.9573541 83.5898035,82.6357202 84.2248362,82.7965372 L91.2101965,84.7263405 C91.8452293,84.8871575 92.1627456,85.5304253 92.0039875,86.173693 C92.0039875,86.6561439 91.5277129,86.9777778 90.8926801,86.9777778 Z" id="Path" fill="#718CCC"></path>
                        <circle id="Oval" fill="#FFFFFF" cx="90.3555556" cy="73.4666667" r="4.22222222"></circle>
                        <path d="M86.1333333,75.5013174 C86.2822507,75.5013174 86.2822507,75.6475993 86.431168,75.6475993 C88.5160105,76.2327267 90.7497703,74.91619 91.3454396,72.8682441 C91.6432742,71.8442711 91.4943569,70.96658 91.047605,70.0888889 C92.9835301,70.8202982 94.1748687,72.7219622 93.5791994,74.7699082 C92.9835301,76.8178541 90.7497703,78.1343908 88.6649278,77.5492634 C87.4735892,77.2566997 86.5800853,76.5252904 86.1333333,75.5013174 Z" id="Path" fill="#E9EEFF"></path>
                        <path d="M89.6416938,78.5333333 C89.1957789,78.5333333 88.7498639,78.5333333 88.303949,78.3847697 C86.9662042,78.0876423 85.925736,77.1962603 85.1825445,76.007751 C84.4393529,74.8192417 84.2907146,73.4821687 84.5879912,72.1450957 C85.3311828,69.4709498 88.1553107,67.8367494 90.8308003,68.5795678 C93.5062899,69.3223861 95.1413114,72.1450957 94.3981198,74.8192417 C94.1008432,76.1563147 93.2090133,77.1962603 92.0199068,77.9390787 C91.4253536,78.3847697 90.5335237,78.5333333 89.6416938,78.5333333 Z M89.6416938,70.5108954 C88.303949,70.5108954 87.2634808,71.4022774 86.8175659,72.5907867 C86.6689276,73.333605 86.6689276,74.0764234 87.1148425,74.8192417 C87.5607574,75.4134964 88.1553107,76.007751 88.8985023,76.1563147 C89.6416938,76.3048784 90.3848854,76.3048784 91.1280769,75.8591874 C91.8712685,75.4134964 92.3171834,74.8192417 92.4658217,74.0764234 C92.61446,73.333605 92.61446,72.5907867 92.1685451,71.8479684 C91.7226302,71.2537137 91.1280769,70.6594591 90.3848854,70.5108954 C90.0876087,70.6594591 89.7903321,70.5108954 89.6416938,70.5108954 Z" id="Shape" fill="#7699EB"></path>
                        <circle id="Oval" fill="#FFFFFF" cx="83.6" cy="71.7777778" r="4.22222222"></circle>
                        <path d="M80.2222222,72.9679841 C80.3711395,72.9679841 80.3711395,73.114266 80.5200569,73.114266 C82.6048994,73.6993934 84.8386592,72.3828567 85.4343285,70.3349108 C85.7321631,69.3109378 85.5832458,68.4332467 85.1364938,67.5555556 C87.072419,68.2869648 88.2637576,70.1886289 87.6680883,72.2365748 C87.072419,74.2845208 84.8386592,75.6010575 82.7538167,75.01593 C81.7113954,74.7233663 80.8178915,73.9919571 80.2222222,72.9679841 Z" id="Path" fill="#E9EEFF"></path>
                        <path d="M83.7305827,76.8444444 C83.2846678,76.8444444 82.8387528,76.8444444 82.3928379,76.6975116 C81.0550931,76.4036459 80.0146249,75.5220488 79.2714333,74.346586 C78.5282418,73.1711233 78.3796035,71.8487276 78.6768801,70.526332 L78.6768801,70.526332 C78.6768801,70.526332 78.6768801,70.526332 78.6768801,70.526332 C78.6768801,70.526332 78.6768801,70.526332 78.6768801,70.526332 C78.9741567,69.2039364 79.8659866,68.1754065 81.0550931,67.4407422 C82.2441996,66.706078 83.5819444,66.5591451 84.9196892,66.8530108 C87.5951788,67.5876751 89.2302002,70.3793992 88.4870087,73.0241904 C88.1897321,75.375116 86.1087957,76.8444444 83.7305827,76.8444444 Z M83.7305827,68.9100707 C83.2846678,68.9100707 82.6901145,69.0570035 82.2441996,69.3508692 C81.6496463,69.7916678 81.0550931,70.3793992 80.9064548,71.1140634 C80.9064548,71.1140634 80.9064548,71.1140634 80.9064548,71.1140634 C80.7578165,71.8487276 80.7578165,72.5833919 81.2037314,73.3180561 C81.6496463,74.0527203 82.2441996,74.4935189 82.9873911,74.6404517 C83.7305827,74.7873846 84.4737743,74.7873846 85.2169658,74.346586 C85.9601574,73.9057875 86.4060723,73.3180561 86.5547106,72.5833919 C87.0006256,71.1140634 86.1087957,69.4978021 84.4737743,69.0570035 C84.3251359,68.9100707 84.0278593,68.9100707 83.7305827,68.9100707 Z" id="Shape" fill="#7699EB"></path>
                        <path d="M8.96102881,17.6081458 L88.0519253,8.46777429 C88.8080525,8.31543476 89.5641796,8.92479286 89.715405,9.83883002 L94.5546186,52.4938972 C94.705844,53.2555948 94.1009423,54.0172924 93.1935897,54.169632 L14.1026932,63.3100035 C13.3465661,63.462343 12.590439,62.8529849 12.4392136,61.9389478 L7.6,19.2838806 C7.6,18.522183 8.20490169,17.7604853 8.96102881,17.6081458 Z" id="Path" fill="#E9EEFF"></path>
                        <path d="M8.96873233,17.1746224 L85.7698242,8.44444444 L90.3322652,47.8807654 C90.4843466,48.6333669 89.8760211,49.3859684 88.9635329,49.5364888 L12.1624411,58.2666667 L7.6,18.8303458 C7.6,18.0777442 8.20832548,17.3251427 8.96873233,17.1746224 Z" id="Path" fill="#FFFFFF"></path>
                        <path d="M14.2244954,64.1777778 C12.8598936,64.1777778 11.7985367,63.1219275 11.6469143,61.7644057 L6.79499703,19.5303945 C6.64337462,18.7762158 6.94661945,18.1728727 7.40148669,17.5695297 C7.85635394,16.9661867 8.46284359,16.6645152 9.22095567,16.6645152 L88.5194786,7.61436996 C89.8840803,7.4635342 91.2486821,8.51938448 91.4003045,9.87690627 L96.2522218,52.1109174 C96.4038442,53.619275 95.3424873,54.825961 93.9778855,54.9767968 L14.6793626,64.026942 C14.3761178,64.1777778 14.2244954,64.1777778 14.2244954,64.1777778 Z M88.671101,9.87690627 C88.671101,9.87690627 88.671101,9.87690627 88.671101,9.87690627 L9.22095567,18.9270515 L9.22095567,18.9270515 C9.06933325,18.9270515 8.91771084,19.0778873 8.91771084,19.3795588 L13.7696281,61.61357 C13.7696281,61.7644057 13.9212505,61.9152415 14.2244954,61.9152415 L93.5230183,52.8650962 C93.6746407,52.8650962 93.8262631,52.7142605 93.8262631,52.412589 L88.9743459,10.1785778 C88.9743459,10.027742 88.8227234,9.87690627 88.671101,9.87690627 Z" id="Shape" fill="#7699EB"></path>
                        <path d="M21.3427406,23.3243728 L77.3532997,16.8888889 C77.8074394,20.2598566 80.6836573,22.7114695 84.0140149,22.2517921 L86.1333333,41.7114695 C82.8029758,42.171147 80.3808975,45.0824373 80.8350372,48.453405 L24.824478,54.8888889 C24.3703384,51.5179211 21.4941205,49.0663082 18.1637629,49.5259857 L16.0444444,30.0663082 C19.374802,29.6066308 21.7968802,26.5421147 21.3427406,23.3243728 Z" id="Path" fill="#E9EEFF"></path>
                        <path d="M81.9111111,38.8520179 L79.7863799,20.3726956 C78.7240143,19.4638764 78.1169483,18.2521176 77.9651818,16.8888889 L21.0527394,23.4020927 C21.3562724,26.5829596 19.0797747,29.309417 16.0444444,29.7638266 L18.3209421,49.6063777 C19.6868408,49.4549078 21.0527394,49.9093174 22.2668715,50.6666667 L77.8134153,44.3049327 C78.4204813,41.881415 79.9381464,40.0637768 81.9111111,38.8520179 Z" id="Path" fill="#FFFFFF"></path>
                        <path d="M25.0138138,55.7333333 C24.4098868,55.7333333 23.9569416,55.2761905 23.9569416,54.6666667 C23.6549781,51.9238095 21.23927,49.9428571 18.5215985,50.247619 C17.9176715,50.247619 17.3137445,49.9428571 17.3137445,49.1809524 L15.2,29.8285714 C15.2,29.5238095 15.2,29.2190476 15.5019635,28.9142857 C15.6529453,28.6095238 15.9549088,28.4571429 16.2568723,28.4571429 C18.9745438,28.152381 20.9373065,25.7142857 20.635343,22.9714286 C20.635343,22.6666667 20.635343,22.3619048 20.9373065,22.0571429 C21.23927,21.752381 21.3902518,21.6 21.6922153,21.6 L77.5554632,15.2 C77.8574267,15.2 78.1593902,15.2 78.4613537,15.5047619 C78.7633172,15.6571429 78.9142989,15.9619048 78.9142989,16.2666667 C79.0652807,17.6380952 79.6692077,18.7047619 80.7260799,19.6190476 C81.7829522,20.3809524 82.9908062,20.8380952 84.3496419,20.6857143 C84.6516055,20.6857143 84.953569,20.6857143 85.2555325,20.9904762 C85.557496,21.1428571 85.7084777,21.447619 85.7084777,21.752381 L87.8222222,41.1047619 C87.8222222,41.4095238 87.8222222,41.7142857 87.5202587,42.0190476 C87.369277,42.3238095 87.0673135,42.4761905 86.76535,42.4761905 C85.4065142,42.6285714 84.3496419,43.2380952 83.4437514,44.3047619 C82.6888427,45.3714286 82.2358974,46.5904762 82.3868792,47.9619048 C82.3868792,48.2666667 82.3868792,48.5714286 82.0849157,48.8761905 C81.9339339,49.1809524 81.6319704,49.3333333 81.3300069,49.3333333 L25.0138138,55.7333333 C25.1647956,55.7333333 25.0138138,55.7333333 25.0138138,55.7333333 Z M19.2765073,48.1142857 C22.2961423,48.2666667 25.0138138,50.4 25.9197043,53.447619 L79.6692077,47.2 C79.6692077,45.6761905 80.2731347,44.3047619 81.1790252,43.0857143 C82.0849157,41.8666667 83.4437514,40.952381 84.8025872,40.647619 L82.8398244,23.4285714 C81.3300069,23.4285714 79.9711712,22.8190476 78.7633172,21.9047619 C77.5554632,20.9904762 76.6495726,19.6190476 76.3476091,18.247619 L22.5981058,24.4952381 C22.447124,27.5428571 20.3333795,30.2857143 17.3137445,31.2 L19.2765073,48.1142857 Z" id="Shape" fill="#7699EB"></path>
                        <circle id="Oval" fill="#FFFFFF" cx="31.2444444" cy="38" r="5.06666667"></circle>
                        <path d="M33.8056028,33.7777778 C34.1169426,36.5061671 32.093234,38.9314021 29.2911758,39.2345564 C28.2014865,39.3861336 27.1117972,39.0829792 26.1777778,38.6282477 C26.1777778,38.6282477 26.1777778,38.6282477 26.1777778,38.6282477 C26.4891176,41.8113686 29.7581855,43.9334492 33.0272533,42.7208317 C34.8952921,42.1145229 36.1406513,40.4471739 36.2963212,38.6282477 C36.4519911,36.5061671 35.3623018,34.6872409 33.8056028,33.7777778 Z" id="Path" fill="#E9EEFF"></path>
                        <path d="M31.5891689,43.9111111 C30.1942094,43.9111111 28.7992498,43.4440592 27.7142813,42.5099553 C26.4743173,41.4201674 25.5443443,40.0190116 25.3893488,38.3064878 C24.9243622,34.8814402 27.4042903,31.7677606 30.9691869,31.3007087 C34.379088,30.8336567 37.4789981,33.3246004 37.9439846,36.905332 L37.9439846,36.905332 C38.4089711,40.3303796 35.929043,43.4440592 32.3641464,43.9111111 C32.0541554,43.9111111 31.8991599,43.9111111 31.5891689,43.9111111 Z M31.5891689,33.6359684 C31.4341734,33.6359684 31.2791779,33.6359684 31.1241824,33.6359684 C30.0392139,33.7916524 29.1092409,34.2587043 28.4892588,35.0371242 C27.8692768,35.8155441 27.5592858,36.905332 27.7142813,37.9951198 C27.8692768,39.0849077 28.3342633,40.0190116 29.1092409,40.6417475 C29.8842184,41.2644834 30.9691869,41.5758514 32.0541554,41.4201674 C34.2240925,41.1087995 35.7740475,39.2405917 35.4640565,37.061016 C35.309061,35.1928082 33.6041105,33.6359684 31.5891689,33.6359684 Z" id="Shape" fill="#7699EB"></path>
                        <circle id="Oval" fill="#FFFFFF" cx="70.9333333" cy="32.9333333" r="5.06666667"></circle>
                        <path d="M73.4658295,28.7111111 C73.7759994,31.4395004 71.759895,33.8647354 68.9683658,34.1678898 C67.8827711,34.319467 66.7971764,34.0163126 65.8666667,33.561581 C65.8666667,33.561581 65.8666667,33.561581 65.8666667,33.561581 C66.1768366,36.7447019 69.4336207,38.8667825 72.6904047,37.654165 C74.5514242,37.0478563 75.7921039,35.3805072 75.9471888,33.561581 C76.2573587,31.4395004 75.171764,29.6205742 73.4658295,28.7111111 Z" id="Path" fill="#E9EEFF"></path>
                        <path d="M71.2777266,39.6888889 C68.1645673,39.6888889 65.362724,37.3486271 65.0514081,34.0722607 C64.8957501,32.3560688 65.362724,30.7958943 66.4523297,29.3917372 C67.5419355,28.1435976 68.9428571,27.2074929 70.6550947,27.0514755 C72.3673323,26.895458 73.9239119,27.3635104 75.3248336,28.4556325 C76.5700973,29.5477547 77.5040451,30.9519117 77.659703,32.6681037 C77.815361,34.3842956 77.3483871,35.9444701 76.2587814,37.3486271 C75.1691756,38.5967667 73.768254,39.5328714 72.0560164,39.6888889 C71.7447005,39.6888889 71.5890425,39.6888889 71.2777266,39.6888889 Z M71.2777266,29.3917372 C71.1220686,29.3917372 70.9664107,29.3917372 70.8107527,29.3917372 C69.721147,29.5477547 68.7871992,30.015807 68.1645673,30.7958943 C67.5419355,31.5759815 67.2306196,32.6681037 67.3862775,33.7602258 C67.6975934,35.9444701 69.565489,37.5046446 71.7447005,37.1926097 C72.8343062,37.0365923 73.768254,36.5685399 74.3908858,35.7884527 C75.0135177,35.0083654 75.3248336,33.9162433 75.1691756,32.8241211 C75.0135177,31.731999 74.5465438,30.7958943 73.768254,30.1718245 C73.1456221,29.7037721 72.2116743,29.3917372 71.2777266,29.3917372 Z" id="Shape" fill="#7699EB"></path>
                        <path d="M51.8976951,45.6 C49.5781911,45.6 47.5679542,44.5357754 46.485519,42.5593584 C46.1762518,41.95123 46.3308854,41.3431017 46.9494198,41.0390376 C47.5679542,40.7349734 48.1864886,40.8870055 48.4957558,41.4951338 C49.2689239,42.7113904 50.8152599,43.4715509 52.3615959,43.3195188 C53.4440312,43.1674867 54.3718328,42.7113904 54.9903672,41.95123 C55.6089016,41.1910696 55.9181688,40.4309092 55.7635352,39.5187167 C55.6089016,37.9983959 54.6811,36.326043 51.5884279,36.6301072 C49.5781911,36.7821393 48.031855,36.4780751 46.7947862,35.5658826 C45.712351,34.6536901 44.939183,33.4374335 44.7845494,31.7650806 C44.6299158,30.2447598 45.0938166,28.7244389 46.1762518,27.5081823 C47.258687,26.2919256 48.6503894,25.5317652 50.3513591,25.3797331 C52.9801303,25.075669 55.2996344,26.2919256 56.5367032,28.2683427 C56.8459704,28.876471 56.6913368,29.4845993 56.0728024,29.7886635 C55.454268,30.0927277 54.8357336,29.9406956 54.5264664,29.3325673 C53.7532984,28.1163106 52.2069623,27.3561502 50.6606263,27.5081823 C49.5781911,27.6602144 48.6503894,28.1163106 48.031855,28.876471 C47.4133206,29.6366314 47.1040534,30.3967918 47.258687,31.3089843 C47.4133206,32.0691447 47.5679542,32.9813372 48.3411222,33.5894655 C49.1142903,34.1975939 50.0420919,34.349626 51.4337943,34.1975939 C55.9181688,33.7414976 57.9284057,36.4780751 58.2376729,39.0626205 C58.3923065,40.5829413 57.9284057,42.1032621 56.8459704,43.3195188 C55.7635352,44.5357754 54.3718328,45.2959358 52.6708631,45.4479679 C52.3615959,45.6 52.0523287,45.6 51.8976951,45.6 Z" id="Path" fill="#7699EB"></path>
                        <path d="M52.8522876,48.1333333 C52.2562092,48.1333333 51.8091503,47.6430108 51.8091503,46.9892473 L51.5111111,44.3741935 C51.5111111,43.7204301 51.8091503,43.0666667 52.5542484,43.0666667 C53.1503268,43.0666667 53.7464052,43.3935484 53.7464052,44.2107527 L54.0444444,46.8258065 C54.0444444,47.4795699 53.5973856,47.9698925 52.8522876,48.1333333 C52.8522876,48.1333333 52.8522876,48.1333333 52.8522876,48.1333333 Z" id="Path" fill="#7699EB"></path>
                        <path d="M50.3189542,27.8666667 C49.7228758,27.8666667 49.275817,27.3763441 49.275817,26.7225806 L48.9777778,24.1075269 C48.9777778,23.4537634 49.275817,22.8 50.020915,22.8 C50.6169935,22.8 51.2130719,23.1268817 51.2130719,23.944086 L51.5111111,26.5591398 C51.3620915,27.2129032 51.0640523,27.8666667 50.3189542,27.8666667 C50.3189542,27.8666667 50.3189542,27.8666667 50.3189542,27.8666667 Z" id="Path" fill="#7699EB"></path>
                        <ellipse id="Oval" fill="#FFFFFF" cx="24.0666667" cy="86.1333333" rx="16.4666667" ry="16.8888889"></ellipse>
                        <path d="M29.7953174,70.0888889 C32.335056,72.1936673 34.1278127,75.0501522 35.024191,78.5080024 C37.2651368,87.3781399 32.0362632,96.3986188 23.3712727,98.6537385 C19.9351558,99.5557863 16.6484353,99.2551037 13.5111111,98.2027145 C17.3954172,101.660565 22.9230836,103.013637 28.3013535,101.660565 C37.1157404,99.405445 42.344614,90.2346249 39.9542718,81.5148287 C38.6097043,75.9522001 34.7253982,71.8929847 29.7953174,70.0888889 Z" id="Path" fill="#E9EEFF"></path>
                        <path d="M24.4888889,103.022222 C16.655699,103.022222 9.42506218,97.7561164 7.31612644,89.7817276 C4.90591416,80.3027371 10.47953,70.6732865 19.9697409,68.1154637 C29.4599517,65.708101 39.1008008,71.2751272 41.6616513,80.7541176 C44.0718636,90.2331081 38.4982477,99.8625587 29.0080369,102.420382 L29.0080369,102.420382 C27.351016,102.871762 25.8446333,103.022222 24.4888889,103.022222 Z M24.4888889,69.9209857 C23.1331445,69.9209857 21.9280383,70.0714458 20.5722939,70.3723662 C12.2871893,72.4788085 7.4667647,81.055038 9.57570044,89.1798869 C11.6846362,97.4551961 20.1203791,102.269921 28.4054838,100.163479 C36.6905885,98.0570367 41.5110131,89.4808073 39.4020773,81.3559583 C37.5944181,74.5852508 31.2676109,69.9209857 24.4888889,69.9209857 Z" id="Shape" fill="#7699EB"></path>
                        <circle id="Oval" fill="#7699EB" cx="34.6222222" cy="82.7555556" r="1.68888889"></circle>
                        <circle id="Oval" fill="#7699EB" cx="14.3555556" cy="88.6666667" r="1.68888889"></circle>
                        <path d="M24.9756624,95.4222222 C23.1576709,95.4222222 21.3396795,94.6623522 20.2791844,93.1426121 C19.8246866,92.6866901 19.9761859,91.92682 20.4306837,91.470898 C20.8851816,91.014976 21.642678,91.16695 22.0971759,91.622872 C23.0061716,92.6866901 24.5211645,93.2945861 26.0361574,92.8386641 C27.0966525,92.5347161 27.8541489,91.92682 28.4601461,91.16695 C28.9146439,90.4070799 29.0661432,89.4952359 28.9146439,88.5833918 C28.4601461,87.0636517 27.399651,85.5439117 24.3696652,86.3037817 C20.1276851,87.5195738 17.8551958,85.0879896 17.0976994,82.3524575 C16.6432015,80.8327174 16.9462001,79.3129773 17.8551958,77.9452112 C18.7641915,76.7294192 19.9761859,75.6656011 21.4911788,75.3616531 C23.9151674,74.7537571 26.339156,75.5136271 27.8541489,77.3373152 C28.3086468,77.7932372 28.1571475,78.5531073 27.7026496,79.0090293 C27.2481517,79.4649513 26.4906553,79.3129773 26.0361574,78.8570553 C25.1271617,77.7932372 23.6121688,77.1853412 22.0971759,77.6412632 C21.0366809,77.9452112 20.2791844,78.5531073 19.6731873,79.3129773 C19.2186894,80.0728474 19.0671901,80.9846914 19.2186894,81.8965355 C19.6731873,83.4162755 20.7336823,84.9360156 23.7636681,84.1761456 C28.1571475,83.1123275 30.4296368,85.3919377 31.035634,88.1274698 C31.4901318,89.6472099 31.1871333,91.16695 30.2781375,92.5347161 C29.3691418,93.7505081 28.1571475,94.8143262 26.6421546,95.1182742 C26.1876567,95.4222222 25.5816596,95.4222222 24.9756624,95.4222222 Z" id="Path" fill="#7699EB"></path>
                        <path d="M21.8070642,78.5333333 C21.3964679,78.5333333 20.9858717,78.2091168 20.8490063,77.5606838 L20.3015446,74.9669517 C20.1646792,74.3185186 20.43841,73.6700856 20.9858717,73.5079774 C21.5333333,73.3458691 22.080795,73.6700856 22.2176604,74.3185186 L22.765122,76.9122508 C22.9019875,77.5606838 22.6282566,78.2091168 22.080795,78.3712251 C21.9439296,78.5333333 21.8070642,78.5333333 21.8070642,78.5333333 Z" id="Path" fill="#7699EB"></path>
                        <path d="M26.8737308,97.9555556 C26.4631346,97.9555556 26.0525384,97.631339 25.9156729,96.982906 L25.3682113,94.3891739 C25.2313459,93.7407409 25.5050767,93.0923078 26.0525384,92.9301996 C26.6,92.7680913 27.1474616,93.0923078 27.2843271,93.7407409 L27.8317887,96.334473 C27.9686541,96.982906 27.6949233,97.631339 27.1474616,97.7934473 C27.0105962,97.9555556 26.8737308,97.9555556 26.8737308,97.9555556 Z" id="Path" fill="#7699EB"></path>
                        <path d="M101.755556,50.6666667 C101.122222,50.6666667 100.647222,50.2075 100.647222,49.5952778 L97.9555556,27.4022222 C97.9555556,26.79 98.2722222,26.1777778 99.0638889,26.1777778 C99.6972222,26.1777778 100.330556,26.4838889 100.330556,27.2491667 L103.022222,49.4422222 C103.022222,50.0544444 102.547222,50.6666667 101.755556,50.6666667 C101.755556,50.6666667 101.755556,50.6666667 101.755556,50.6666667 Z" id="Path" fill="#FF7F7F"></path>
                        <path d="M98.5777778,22.8 C98.0444444,22.8 97.6444444,22.3594203 97.6444444,21.7719807 L97.1111111,17.2193237 C97.1111111,16.6318841 97.3777778,16.0444444 98.0444444,16.0444444 C98.5777778,16.0444444 99.1111111,16.3381643 99.1111111,17.0724638 L99.6444444,21.6251208 C99.6444444,22.2125604 99.2444444,22.8 98.5777778,22.8 C98.5777778,22.8 98.5777778,22.8 98.5777778,22.8 Z" id="Path" fill="#FF7F7F"></path>
                    </g>
                </g>
            </g>
        </g>
    </g>
</svg>