<?xml version="1.0" encoding="UTF-8"?>
<svg width="120px" height="112px" viewBox="0 0 120 112" version="1.1" xmlns="http://www.w3.org/2000/svg" xmlns:xlink="http://www.w3.org/1999/xlink">
    <!-- Generator: Sketch 64 (93537) - https://sketch.com -->
    <title>icon-Gratis Versand@2x</title>
    <desc>Created with Sketch.</desc>
    <g id="Landing" stroke="none" stroke-width="1" fill="none" fill-rule="evenodd">
        <g id="Topbaby-UI-Main" transform="translate(-765.000000, -825.000000)" fill-rule="nonzero">
            <g id="2-screen" transform="translate(220.000000, 681.000000)">
                <g id="Gratis-Versand" transform="translate(515.000000, 114.000000)">
                    <g id="icon-Gratis-Versand" transform="translate(30.000000, 30.000000)">
                        <circle id="Oval" fill="#E9EEFF" cx="100.485185" cy="56.0037037" r="19.5"></circle>
                        <ellipse id="Oval" fill="#E9EEFF" cx="33.3592376" cy="95.0465185" rx="16.5780377" ry="16.6755556"></ellipse>
                        <ellipse id="Oval" fill="#E9EEFF" cx="27.6300628" cy="27.7925926" rx="27.6300628" ry="27.7925926"></ellipse>
                        <path d="M103.125146,54.4734815 L95.9413299,51.4162963 L76.6002859,51.4162963 C73.560979,51.4162963 71.0742733,48.914963 71.0742733,45.8577778 L71.0742733,25.0133333 L61.4037514,25.0133333 L61.4037514,80.5985185 L99.8095387,80.5985185 C100.914741,80.5985185 102.019944,80.1816296 102.710695,79.3478519 L104.368499,77.6802963 C105.197401,76.8465185 105.611852,75.8737778 105.611852,74.7620741 L105.611852,58.3644444 C105.611852,56.5579259 104.6448,55.1682963 103.125146,54.4734815 Z" id="Path" fill="#E9EEFF"></path>
                        <path d="M94.8361274,54.4734815 L87.652311,51.4162963 L76.6002859,51.4162963 C73.560979,51.4162963 71.0742733,48.914963 71.0742733,45.8577778 L71.0742733,25.0133333 L61.4037514,25.0133333 L61.4037514,80.5985185 L91.5205198,80.5985185 C92.6257223,80.5985185 93.7309248,80.1816296 94.4216764,79.3478519 L96.0794802,77.6802963 C96.9083821,76.8465185 97.322833,75.8737778 97.322833,74.7620741 L97.322833,58.3644444 C97.322833,56.5579259 96.3557808,55.1682963 94.8361274,54.4734815 Z" id="Path" fill="#FFFFFF"></path>
                        <polygon id="Path" fill="#E9EEFF" points="91.7968204 62.5333333 95.9413299 70.8711111 105.611852 70.8711111 105.611852 62.5333333"></polygon>
                        <path d="M91.7968204,62.5333333 L94.5598267,68.0918519 L100.085839,68.0918519 C100.914741,68.0918519 101.467342,67.536 101.467342,66.7022222 L101.467342,62.5333333 L91.7968204,62.5333333 Z" id="Path" fill="#FFFFFF"></path>
                        <path d="M105.611852,71.8438519 L95.9413299,71.8438519 C95.5268789,71.8438519 95.2505783,71.5659259 94.9742777,71.288 L90.8297682,62.9502222 C90.6916179,62.6722963 90.6916179,62.2554074 90.8297682,61.9774815 C90.9679186,61.6995556 91.3823695,61.4216296 91.6586701,61.4216296 L105.473702,61.4216296 C106.026303,61.4216296 106.578904,61.8385185 106.578904,62.5333333 L106.578904,70.8711111 C106.717054,71.426963 106.164453,71.8438519 105.611852,71.8438519 Z M96.6320814,69.7594074 L104.6448,69.7594074 L104.6448,63.5060741 L93.5927745,63.5060741 L96.6320814,69.7594074 Z" id="Shape" fill="#7699EB"></path>
                        <path d="M76.6002859,51.4162963 L95.9413299,51.4162963 L85.3037557,29.5991111 C83.9222525,26.8198519 81.0210959,25.0133333 77.8436387,25.0133333 L71.0742733,25.0133333 L71.0742733,45.8577778 C71.0742733,48.914963 73.560979,51.4162963 76.6002859,51.4162963 Z" id="Path" fill="#FFFFFF"></path>
                        <path d="M85.3037557,29.5991111 C83.9222525,26.8198519 81.0210959,25.0133333 77.8436387,25.0133333 L71.0742733,25.0133333 L71.0742733,25.0133333 C74.1135802,25.0133333 77.0147368,26.8198519 78.39624,29.5991111 L89.0338142,51.4162963 L95.9413299,51.4162963 L85.3037557,29.5991111 Z" id="Path" fill="#E9EEFF"></path>
                        <path d="M95.9413299,52.389037 L76.6002859,52.389037 C73.0083777,52.389037 69.9690708,49.4708148 69.9690708,45.7188148 L69.9690708,24.8743704 C69.9690708,24.3185185 70.3835218,23.7626667 71.0742733,23.7626667 L77.8436387,23.7626667 C81.4355469,23.7626667 84.6130041,25.7081481 86.2708079,29.0432593 L96.9083821,50.8604444 C97.0465324,51.1383704 97.0465324,51.5552593 96.9083821,51.8331852 C96.6320814,52.2500741 96.3557808,52.389037 95.9413299,52.389037 Z M72.1794759,25.9860741 L72.1794759,45.8577778 C72.1794759,48.3591111 74.2517306,50.4435556 76.7384362,50.4435556 L94.4216764,50.4435556 L84.4748538,30.154963 C83.231501,27.6536296 80.7447953,26.125037 77.981789,26.125037 L72.1794759,26.125037 L72.1794759,25.9860741 Z" id="Shape" fill="#7699EB"></path>
                        <path d="M19.9586571,13.8962963 C18.4390037,13.8962963 17.1956509,15.146963 17.1956509,16.6755556 L17.1956509,77.8192593 C17.1956509,79.3478519 18.4390037,80.5985185 19.9586571,80.5985185 L61.4037514,80.5985185 L61.4037514,16.6755556 C61.4037514,15.146963 60.1603985,13.8962963 58.6407451,13.8962963 L19.9586571,13.8962963 Z" id="Path" fill="#E9EEFF"></path>
                        <path d="M19.9586571,13.8962963 C18.4390037,13.8962963 17.1956509,15.146963 17.1956509,16.6755556 L17.1956509,73.6503704 L50.3517262,73.6503704 C51.8713797,73.6503704 53.1147325,72.3997037 53.1147325,70.8711111 L53.1147325,13.8962963 L19.9586571,13.8962963 Z" id="Path" fill="#FFFFFF"></path>
                        <path d="M61.4037514,81.5712593 L19.9586571,81.5712593 C17.8864024,81.5712593 16.0904483,79.9037037 16.0904483,77.6802963 L16.0904483,16.5365926 C16.0904483,14.4521481 17.7482521,12.6456296 19.9586571,12.6456296 L58.6407451,12.6456296 C60.7129998,12.6456296 62.5089539,14.3131852 62.5089539,16.5365926 L62.5089539,80.4595556 C62.5089539,81.1543704 61.9563526,81.5712593 61.4037514,81.5712593 Z M19.9586571,14.869037 C18.9916049,14.869037 18.1627031,15.7028148 18.1627031,16.6755556 L18.1627031,77.8192593 C18.1627031,78.792 18.9916049,79.6257778 19.9586571,79.6257778 L60.2985488,79.6257778 L60.2985488,16.6755556 C60.2985488,15.7028148 59.469647,14.869037 58.5025948,14.869037 L19.9586571,14.869037 L19.9586571,14.869037 Z" id="Shape" fill="#7699EB"></path>
                        <path d="M99.8095387,81.5712593 L61.4037514,81.5712593 C60.8511501,81.5712593 60.2985488,81.1543704 60.2985488,80.4595556 L60.2985488,24.8743704 C60.2985488,24.3185185 60.7129998,23.7626667 61.4037514,23.7626667 L71.0742733,23.7626667 C71.6268746,23.7626667 72.1794759,24.1795556 72.1794759,24.8743704 L72.1794759,45.7188148 C72.1794759,48.2201481 74.2517306,50.3045926 76.7384362,50.3045926 L96.0794802,50.3045926 C96.2176305,50.3045926 96.3557808,50.3045926 96.4939311,50.4435556 L103.677747,53.5007407 C105.611852,54.3345185 106.855205,56.141037 106.855205,58.2254815 L106.855205,74.6231111 C106.855205,76.0127407 106.302603,77.2634074 105.335551,78.3751111 L103.677747,80.0426667 C102.434395,81.0154074 101.191042,81.5712593 99.8095387,81.5712593 Z M62.5089539,79.4868148 L99.8095387,79.4868148 C100.638441,79.4868148 101.467342,79.2088889 102.019944,78.5140741 L103.677747,76.8465185 C104.230349,76.2906667 104.6448,75.4568889 104.6448,74.6231111 L104.6448,58.2254815 C104.6448,56.9748148 103.954048,55.8631111 102.710695,55.3072593 L102.710695,55.3072593 L95.8031796,52.2500741 L76.7384362,52.2500741 C73.146528,52.2500741 70.1072211,49.3318519 70.1072211,45.5798519 L70.1072211,25.7081481 L62.5089539,25.7081481 L62.5089539,79.4868148 L62.5089539,79.4868148 Z" id="Shape" fill="#7699EB"></path>
                        <path d="M105.611852,95.4675556 L72.7320771,95.4675556 C72.1794759,95.4675556 71.6268746,95.0506667 71.6268746,94.3558519 C71.6268746,93.661037 72.0413255,93.2441481 72.7320771,93.2441481 L105.611852,93.2441481 C106.164453,93.2441481 106.717054,93.661037 106.717054,94.3558519 C106.717054,95.0506667 106.164453,95.4675556 105.611852,95.4675556 Z" id="Path" fill="#7699EB"></path>
                        <path d="M65.8245614,95.4675556 L38.8852502,95.4675556 C38.3326489,95.4675556 37.7800476,95.0506667 37.7800476,94.3558519 C37.7800476,93.661037 38.1944986,93.2441481 38.8852502,93.2441481 L65.8245614,93.2441481 C66.3771627,93.2441481 66.9297639,93.661037 66.9297639,94.3558519 C66.9297639,95.0506667 66.3771627,95.4675556 65.8245614,95.4675556 Z" id="Path" fill="#7699EB"></path>
                        <path d="M31.9777345,95.4675556 L25.4846697,95.4675556 C24.9320684,95.4675556 24.3794672,95.0506667 24.3794672,94.3558519 C24.3794672,93.661037 24.7939181,93.2441481 25.4846697,93.2441481 L31.9777345,93.2441481 C32.5303357,93.2441481 33.082937,93.661037 33.082937,94.3558519 C33.082937,95.0506667 32.5303357,95.4675556 31.9777345,95.4675556 Z" id="Path" fill="#7699EB"></path>
                        <path d="M97.322833,103.805333 L81.0210959,103.805333 C80.4684947,103.805333 79.9158934,103.388444 79.9158934,102.69363 C79.9158934,101.998815 80.3303444,101.581926 81.0210959,101.581926 L97.322833,101.581926 C97.8754343,101.581926 98.4280355,101.998815 98.4280355,102.69363 C98.4280355,103.388444 97.8754343,103.805333 97.322833,103.805333 Z" id="Path" fill="#7699EB"></path>
                        <path d="M74.1135802,103.805333 L49.9372753,103.805333 C49.384674,103.805333 48.8320728,103.388444 48.8320728,102.69363 C48.8320728,101.998815 49.2465237,101.581926 49.9372753,101.581926 L74.1135802,101.581926 C74.6661815,101.581926 75.2187828,101.998815 75.2187828,102.69363 C75.2187828,103.388444 74.6661815,103.805333 74.1135802,103.805333 Z" id="Path" fill="#7699EB"></path>
                        <path d="M43.0297596,103.805333 L18.577154,103.805333 C18.0245527,103.805333 17.4719515,103.388444 17.4719515,102.69363 C17.4719515,101.998815 17.8864024,101.581926 18.577154,101.581926 L43.0297596,101.581926 C43.5823608,101.581926 44.1349621,101.998815 44.1349621,102.69363 C44.1349621,103.388444 43.5823608,103.805333 43.0297596,103.805333 Z" id="Path" fill="#7699EB"></path>
                        <ellipse id="Oval" fill="#FFFFFF" cx="39.2997011" cy="80.5985185" rx="8.28901884" ry="8.33777778"></ellipse>
                        <path d="M43.5823608,73.5114074 C44.4112627,74.7620741 44.8257137,76.2906667 44.8257137,77.8192593 C44.8257137,82.405037 41.0956552,86.157037 36.5366948,86.157037 C35.0170414,86.157037 33.4973879,85.7401481 32.2540351,84.9063704 C33.7736885,87.2687407 36.2603942,88.9362963 39.2997011,88.9362963 C43.8586615,88.9362963 47.5887199,85.1842963 47.5887199,80.5985185 C47.5887199,77.5413333 46.0690665,74.901037 43.5823608,73.5114074 Z" id="Path" fill="#E9EEFF"></path>
                        <path d="M39.2997011,89.909037 C34.1881395,89.909037 29.9054797,85.7401481 29.9054797,80.4595556 C29.9054797,75.3179259 34.0499892,71.0100741 39.2997011,71.0100741 C44.549413,71.0100741 48.6939225,75.178963 48.6939225,80.4595556 C48.6939225,85.7401481 44.4112627,89.909037 39.2997011,89.909037 Z M39.2997011,73.2334815 C35.293342,73.2334815 31.9777345,76.5685926 31.9777345,80.5985185 C31.9777345,84.6284444 35.293342,87.9635556 39.2997011,87.9635556 C43.3060602,87.9635556 46.6216677,84.6284444 46.6216677,80.5985185 C46.6216677,76.5685926 43.3060602,73.2334815 39.2997011,73.2334815 Z" id="Shape" fill="#7699EB"></path>
                        <ellipse id="Oval" fill="#FFFFFF" cx="39.2997011" cy="80.5985185" rx="2.76300628" ry="2.77925926"></ellipse>
                        <path d="M39.2997011,84.3505185 C37.2274464,84.3505185 35.4314923,82.682963 35.4314923,80.4595556 C35.4314923,78.3751111 37.0892961,76.5685926 39.2997011,76.5685926 C41.5101061,76.5685926 43.1679099,78.2361481 43.1679099,80.4595556 C43.1679099,82.682963 41.3719558,84.3505185 39.2997011,84.3505185 Z M39.2997011,78.792 C38.3326489,78.792 37.503747,79.6257778 37.503747,80.5985185 C37.503747,81.5712593 38.3326489,82.405037 39.2997011,82.405037 C40.2667533,82.405037 41.0956552,81.5712593 41.0956552,80.5985185 C41.0956552,79.6257778 40.2667533,78.792 39.2997011,78.792 Z" id="Shape" fill="#FF7F7F"></path>
                        <ellipse id="Oval" fill="#FFFFFF" cx="83.5078016" cy="80.5985185" rx="8.28901884" ry="8.33777778"></ellipse>
                        <path d="M87.7904613,73.5114074 C88.6193632,74.7620741 89.0338142,76.2906667 89.0338142,77.8192593 C89.0338142,82.405037 85.3037557,86.157037 80.7447953,86.157037 C79.2251419,86.157037 77.7054884,85.7401481 76.4621356,84.9063704 C77.981789,87.2687407 80.4684947,88.9362963 83.5078016,88.9362963 C88.066762,88.9362963 91.7968204,85.1842963 91.7968204,80.5985185 C91.7968204,77.5413333 90.277167,74.901037 87.7904613,73.5114074 Z" id="Path" fill="#E9EEFF"></path>
                        <path d="M83.5078016,89.909037 C78.39624,89.909037 74.1135802,85.7401481 74.1135802,80.4595556 C74.1135802,75.3179259 78.2580897,71.0100741 83.5078016,71.0100741 C88.7575135,71.0100741 92.902023,75.178963 92.902023,80.4595556 C92.902023,85.7401481 88.6193632,89.909037 83.5078016,89.909037 Z M83.5078016,73.2334815 C79.5014425,73.2334815 76.185835,76.5685926 76.185835,80.5985185 C76.185835,84.6284444 79.5014425,87.9635556 83.5078016,87.9635556 C87.5141607,87.9635556 90.8297682,84.6284444 90.8297682,80.5985185 C90.8297682,76.5685926 87.5141607,73.2334815 83.5078016,73.2334815 Z" id="Shape" fill="#7699EB"></path>
                        <ellipse id="Oval" fill="#FFFFFF" cx="83.5078016" cy="80.5985185" rx="2.76300628" ry="2.77925926"></ellipse>
                        <path d="M83.5078016,84.3505185 C81.4355469,84.3505185 79.6395928,82.682963 79.6395928,80.4595556 C79.6395928,78.3751111 81.2973966,76.5685926 83.5078016,76.5685926 C85.7182066,76.5685926 87.3760104,78.2361481 87.3760104,80.4595556 C87.3760104,82.682963 85.5800563,84.3505185 83.5078016,84.3505185 Z M83.5078016,78.792 C82.5407494,78.792 81.7118475,79.6257778 81.7118475,80.5985185 C81.7118475,81.5712593 82.5407494,82.405037 83.5078016,82.405037 C84.4748538,82.405037 85.3037557,81.5712593 85.3037557,80.5985185 C85.3037557,79.6257778 84.4748538,78.792 83.5078016,78.792 Z" id="Shape" fill="#FF7F7F"></path>
                        <path d="M77.981789,57.9475556 L72.4557765,57.9475556 C71.9031752,57.9475556 71.350574,57.5306667 71.350574,56.8358519 C71.350574,56.141037 71.7650249,55.7241481 72.4557765,55.7241481 L77.981789,55.7241481 C78.5343903,55.7241481 79.0869916,56.141037 79.0869916,56.8358519 C79.0869916,57.5306667 78.5343903,57.9475556 77.981789,57.9475556 Z" id="Path" fill="#7699EB"></path>
                        <path d="M54.4962357,49.6097778 L24.1031666,49.6097778 C23.5505653,49.6097778 22.997964,49.1928889 22.997964,48.4980741 C22.997964,47.8032593 23.412415,47.3863704 24.1031666,47.3863704 L54.4962357,47.3863704 C55.0488369,47.3863704 55.6014382,47.8032593 55.6014382,48.4980741 C55.6014382,49.1928889 55.0488369,49.6097778 54.4962357,49.6097778 Z" id="Path" fill="#7699EB"></path>
                        <path d="M54.4962357,57.9475556 L24.1031666,57.9475556 C23.5505653,57.9475556 22.997964,57.5306667 22.997964,56.8358519 C22.997964,56.141037 23.412415,55.7241481 24.1031666,55.7241481 L54.4962357,55.7241481 C55.0488369,55.7241481 55.6014382,56.141037 55.6014382,56.8358519 C55.6014382,57.5306667 55.0488369,57.9475556 54.4962357,57.9475556 Z" id="Path" fill="#7699EB"></path>
                        <path d="M54.4962357,66.2853333 L24.1031666,66.2853333 C23.5505653,66.2853333 22.997964,65.8684444 22.997964,65.1736296 C22.997964,64.4788148 23.412415,64.0619259 24.1031666,64.0619259 L54.4962357,64.0619259 C55.0488369,64.0619259 55.6014382,64.4788148 55.6014382,65.1736296 C55.6014382,65.8684444 55.0488369,66.2853333 54.4962357,66.2853333 Z" id="Path" fill="#7699EB"></path>
                        <path d="M54.4962357,41.272 L24.1031666,41.272 C23.5505653,41.272 22.997964,40.8551111 22.997964,40.1602963 C22.997964,39.4654815 23.412415,39.0485926 24.1031666,39.0485926 L54.4962357,39.0485926 C55.0488369,39.0485926 55.6014382,39.4654815 55.6014382,40.1602963 C55.6014382,40.8551111 55.0488369,41.272 54.4962357,41.272 Z" id="Path" fill="#7699EB"></path>
                        <path d="M54.4962357,32.9342222 L24.1031666,32.9342222 C23.5505653,32.9342222 22.997964,32.5173333 22.997964,31.8225185 C22.997964,31.1277037 23.412415,30.7108148 24.1031666,30.7108148 L54.4962357,30.7108148 C55.0488369,30.7108148 55.6014382,31.1277037 55.6014382,31.8225185 C55.6014382,32.5173333 55.0488369,32.9342222 54.4962357,32.9342222 Z" id="Path" fill="#7699EB"></path>
                        <path d="M54.4962357,24.5964444 L24.1031666,24.5964444 C23.5505653,24.5964444 22.997964,24.1795556 22.997964,23.4847407 C22.997964,22.7899259 23.412415,22.373037 24.1031666,22.373037 L54.4962357,22.373037 C55.0488369,22.373037 55.6014382,22.7899259 55.6014382,23.4847407 C55.6014382,24.1795556 55.0488369,24.5964444 54.4962357,24.5964444 Z" id="Path" fill="#7699EB"></path>
                        <path d="M99.2569374,35.7134815 L97.322833,35.7134815 C96.7702318,35.7134815 96.2176305,35.2965926 96.2176305,34.6017778 C96.2176305,33.906963 96.6320814,33.4900741 97.322833,33.4900741 L99.2569374,33.4900741 C99.8095387,33.4900741 100.36214,33.906963 100.36214,34.6017778 C100.36214,35.2965926 99.8095387,35.7134815 99.2569374,35.7134815 Z" id="Path" fill="#7699EB"></path>
                        <path d="M105.611852,35.7134815 L103.677747,35.7134815 C103.125146,35.7134815 102.572545,35.2965926 102.572545,34.6017778 C102.572545,33.906963 102.986996,33.4900741 103.677747,33.4900741 L105.611852,33.4900741 C106.164453,33.4900741 106.717054,33.906963 106.717054,34.6017778 C106.717054,35.2965926 106.164453,35.7134815 105.611852,35.7134815 Z" id="Path" fill="#7699EB"></path>
                        <path d="M101.467342,39.8823704 C100.914741,39.8823704 100.36214,39.4654815 100.36214,38.7706667 L100.36214,36.8251852 C100.36214,36.2693333 100.776591,35.7134815 101.467342,35.7134815 C102.158094,35.7134815 102.572545,36.1303704 102.572545,36.8251852 L102.572545,38.7706667 C102.572545,39.3265185 102.019944,39.8823704 101.467342,39.8823704 Z" id="Path" fill="#7699EB"></path>
                        <path d="M101.467342,33.3511111 C100.914741,33.3511111 100.36214,32.9342222 100.36214,32.2394074 L100.36214,30.2939259 C100.36214,29.7380741 100.776591,29.1822222 101.467342,29.1822222 C102.158094,29.1822222 102.572545,29.5991111 102.572545,30.2939259 L102.572545,32.2394074 C102.572545,32.9342222 102.019944,33.3511111 101.467342,33.3511111 Z" id="Path" fill="#7699EB"></path>
                        <path d="M84.0604029,19.0379259 L82.1262985,19.0379259 C81.5736972,19.0379259 81.0210959,18.621037 81.0210959,17.9262222 C81.0210959,17.2314074 81.4355469,16.8145185 82.1262985,16.8145185 L84.0604029,16.8145185 C84.6130041,16.8145185 85.1656054,17.2314074 85.1656054,17.9262222 C85.1656054,18.621037 84.6130041,19.0379259 84.0604029,19.0379259 Z" id="Path" fill="#7699EB"></path>
                        <path d="M90.4153173,19.0379259 L88.4812129,19.0379259 C87.9286117,19.0379259 87.3760104,18.621037 87.3760104,17.9262222 C87.3760104,17.2314074 87.7904613,16.8145185 88.4812129,16.8145185 L90.4153173,16.8145185 C90.9679186,16.8145185 91.5205198,17.2314074 91.5205198,17.9262222 C91.5205198,18.621037 90.9679186,19.0379259 90.4153173,19.0379259 Z" id="Path" fill="#7699EB"></path>
                        <path d="M86.2708079,23.2068148 C85.7182066,23.2068148 85.1656054,22.7899259 85.1656054,22.0951111 L85.1656054,20.1496296 C85.1656054,19.5937778 85.5800563,19.0379259 86.2708079,19.0379259 C86.9615595,19.0379259 87.3760104,19.4548148 87.3760104,20.1496296 L87.3760104,22.0951111 C87.3760104,22.650963 86.8234091,23.2068148 86.2708079,23.2068148 Z" id="Path" fill="#7699EB"></path>
                        <path d="M85.8157245,16.5780377 C85.3281352,16.5780377 84.8405458,16.1879662 84.8405458,15.5378471 L84.8405458,13.7175135 C84.8405458,13.1974182 85.2062378,12.6773229 85.8157245,12.6773229 C86.4252112,12.6773229 86.7909032,13.0673944 86.7909032,13.7175135 L86.7909032,15.5378471 C86.7909032,16.1879662 86.3033138,16.5780377 85.8157245,16.5780377 Z" id="Path" fill="#7699EB"></path>
                    </g>
                </g>
            </g>
        </g>
    </g>
</svg>