<?xml version="1.0" encoding="UTF-8"?>
<svg width="43px" height="31px" viewBox="0 0 43 31" version="1.1" xmlns="http://www.w3.org/2000/svg" xmlns:xlink="http://www.w3.org/1999/xlink">
    <!-- Generator: Sketch 64 (93537) - https://sketch.com -->
    <title>icon quote 1@2x</title>
    <desc>Created with Sketch.</desc>
    <g id="Landing" stroke="none" stroke-width="1" fill="none" fill-rule="evenodd">
        <g id="Topbaby-UI-Main" transform="translate(-392.000000, -1445.000000)" fill="#7699EB">
            <g id="3-screen" transform="translate(392.000000, 1319.000000)">
                <g id="icon-quote-1" transform="translate(21.500000, 141.500000) rotate(-180.000000) translate(-21.500000, -141.500000) translate(0.000000, 126.000000)">
                    <path d="M28.679111,30.9441489 C28.3389544,31.0782204 27.9518196,30.9647065 27.7273684,30.6701961 C27.4107009,30.2536807 27.5307562,29.6445492 27.9822684,29.3920478 C28.8513642,28.9071559 30.3690196,27.9682085 31.8557911,26.7347507 C34.8380338,24.2597909 35.6879904,20.4141734 31.527814,18.7847577 C26.9683233,16.9989254 24,13.481783 24,9.34969944 C24,4.1857122 28.5612306,0 33.587023,0 C38.3031076,0 42.2544922,3.99979972 42.7151391,8.7200103 C42.7190539,8.72045721 42.9348054,9.34701801 42.9930932,11.7513669 C43.1275029,17.2934358 41.4032307,25.9325563 28.679111,30.9441489" id="Fill-1" transform="translate(33.500000, 15.500000) rotate(-180.000000) translate(-33.500000, -15.500000) "></path>
                    <path d="M4.67911101,30.9441489 C4.33895438,31.0782204 3.95181961,30.9647065 3.72736843,30.6701961 C3.41070088,30.2536807 3.53075616,29.6445492 3.98226841,29.3920478 C4.85136424,28.9071559 6.36901956,27.9682085 7.8557911,26.7347507 C10.8380338,24.2597909 11.6879904,20.4141734 7.52781399,18.7847577 C2.96832328,16.9989254 0,13.481783 0,9.34969944 C0,4.1857122 4.56123064,0 9.58702302,0 C14.3026726,0 18.2544922,3.99979972 18.7151391,8.7200103 C18.7190539,8.72045721 18.9348054,9.34701801 18.9930932,11.7513669 C19.1275029,17.2934358 17.4032307,25.9325563 4.67911101,30.9441489" id="Fill-4" transform="translate(9.500000, 15.500000) rotate(-180.000000) translate(-9.500000, -15.500000) "></path>
                </g>
            </g>
        </g>
    </g>
</svg>