<?xml version="1.0" encoding="UTF-8"?>
<svg width="117px" height="112px" viewBox="0 0 117 112" version="1.1" xmlns="http://www.w3.org/2000/svg" xmlns:xlink="http://www.w3.org/1999/xlink">
    <!-- Generator: Sketch 64 (93537) - https://sketch.com -->
    <title>icon-Grosses Sortiment@2x</title>
    <desc>Created with Sketch.</desc>
    <g id="Landing" stroke="none" stroke-width="1" fill="none" fill-rule="evenodd">
        <g id="Topbaby-UI-Main" transform="translate(-765.000000, -1027.000000)">
            <g id="2-screen" transform="translate(220.000000, 681.000000)">
                <g id="Grosses-Sortiment" transform="translate(515.000000, 316.000000)">
                    <g id="icon-Grosses-Sortiment" transform="translate(88.477778, 86.000000) scale(-1, 1) translate(-88.477778, -86.000000) translate(29.977778, 30.000000)">
                        <circle id="Oval-Copy-6" fill="#E9EEFF" fill-rule="nonzero" transform="translate(36.941636, 21.000000) rotate(-90.000000) translate(-36.941636, -21.000000) " cx="36.9416361" cy="21" r="21"></circle>
                        <polygon id="Path-9" fill="#FFFFFF" transform="translate(64.966752, 21.653220) scale(-1, 1) rotate(-3.000000) translate(-64.966752, -21.653220) " points="50.9269109 12.3600917 79.0065934 40.4397742 79.0065934 4.68251789 70.1846836 2.86666667 62.1610737 4.68251789"></polygon>
                        <circle id="Oval-Copy-7" fill="#E9EEFF" fill-rule="nonzero" transform="translate(101.376389, 50.445074) rotate(-90.000000) translate(-101.376389, -50.445074) " cx="101.376389" cy="50.445074" r="15.5"></circle>
                        <circle id="Oval-Copy-8" fill="#E9EEFF" fill-rule="nonzero" transform="translate(25.972527, 86.062963) rotate(-90.000000) translate(-25.972527, -86.062963) " cx="25.9725275" cy="86.062963" r="25.5"></circle>
                        <path d="M46.165466,63.8437118 C68.261733,60.9199629 81.2157274,54.1634946 85.027449,43.574307 C86.4574596,42.0831117 87.0732865,44.9855059 86.8749299,52.2814896 L84.0109899,59.9845427 L79.3098665,63.8437118 L46.165466,63.8437118 Z" id="Path-6" fill="#BDC3D8"></path>
                        <path d="M51.8654709,36.5473383 C59.7430289,28.3486414 66.0958983,18.2071784 70.924079,6.12294927 C76.0039331,9.24780327 78.7991956,10.9078042 79.3098665,11.102952 L51.2920921,40.9733822 L51.8654709,36.5473383 Z" id="Path-4" fill="#E9EEFF"></path>
                        <path d="M57.4315434,53.2674235 C66.2333408,43.7408156 73.0483299,32.935397 77.8765106,20.851168 C82.9563647,23.976022 85.2975136,26.9678283 84.8999572,29.8265868 L56.6996005,56.9883156 L57.4315434,53.2674235 Z" id="Path-4-Copy" fill="#E9EEFF" transform="translate(70.821420, 38.919742) rotate(40.000000) translate(-70.821420, -38.919742) "></path>
                        <g id="Group-3" transform="translate(27.089280, 76.549451)" fill-rule="nonzero">
                            <circle id="Oval" fill="#FFFFFF" cx="8.63990232" cy="8.76695971" r="7.62344322"></circle>
                            <path d="M12.5786813,2.28703297 C13.3410256,3.43054945 13.7221978,4.82818071 13.7221978,6.22581197 C13.7221978,10.4187057 10.2916484,13.8492552 6.09875458,13.8492552 C4.70112332,13.8492552 3.30349206,13.468083 2.15997558,12.7057387 C3.55760684,14.8657143 5.8446398,16.3904029 8.63990232,16.3904029 C12.8327961,16.3904029 16.2633455,12.9598535 16.2633455,8.76695971 C16.2633455,5.97169719 14.8657143,3.55760684 12.5786813,2.28703297 Z" id="Path" fill="#E9EEFF"></path>
                            <path d="M8.63990232,17.2798046 C3.938779,17.2798046 -3.83688739e-14,13.468083 -3.83688739e-14,8.63990232 C-3.83688739e-14,3.938779 3.81172161,-6.99667701e-14 8.63990232,-6.99667701e-14 C13.468083,-6.99667701e-14 17.2798046,3.81172161 17.2798046,8.63990232 C17.2798046,13.468083 13.3410256,17.2798046 8.63990232,17.2798046 Z M8.63990232,2.03291819 C4.9552381,2.03291819 1.90586081,5.08229548 1.90586081,8.76695971 C1.90586081,12.4516239 4.9552381,15.5010012 8.63990232,15.5010012 C12.3245665,15.5010012 15.3739438,12.4516239 15.3739438,8.76695971 C15.3739438,5.08229548 12.3245665,2.03291819 8.63990232,2.03291819 Z" id="Shape" fill="#7699EB"></path>
                            <path d="M8.63990232,12.1975092 C6.73404151,12.1975092 5.08229548,10.6728205 5.08229548,8.63990232 C5.08229548,6.73404151 6.60698413,5.08229548 8.63990232,5.08229548 C10.6728205,5.08229548 12.1975092,6.60698413 12.1975092,8.63990232 C12.1975092,10.6728205 10.5457631,12.1975092 8.63990232,12.1975092 Z M8.63990232,7.11521368 C7.75050061,7.11521368 6.98815629,7.877558 6.98815629,8.76695971 C6.98815629,9.65636142 7.75050061,10.4187057 8.63990232,10.4187057 C9.52930403,10.4187057 10.2916484,9.65636142 10.2916484,8.76695971 C10.2916484,7.877558 9.52930403,7.11521368 8.63990232,7.11521368 Z" id="Shape" fill="#FF7F7F"></path>
                            <circle id="Oval" fill="#FFFFFF" cx="41.674823" cy="8.76695971" r="7.62344322"></circle>
                            <path d="M45.613602,2.28703297 C46.3759463,3.43054945 46.7571184,4.82818071 46.7571184,6.22581197 C46.7571184,10.4187057 43.326569,13.8492552 39.1336752,13.8492552 C37.736044,13.8492552 36.3384127,13.468083 35.1948962,12.7057387 C36.5925275,14.8657143 38.8795604,16.3904029 41.674823,16.3904029 C45.8677167,16.3904029 49.2982662,12.9598535 49.2982662,8.76695971 C49.2982662,5.97169719 47.9006349,3.55760684 45.613602,2.28703297 Z" id="Path" fill="#E9EEFF"></path>
                            <path d="M41.674823,17.2798046 C36.9736996,17.2798046 33.0349206,13.468083 33.0349206,8.63990232 C33.0349206,3.938779 36.8466422,5.07823332e-13 41.674823,5.07823332e-13 C46.5030037,5.07823332e-13 50.3147253,3.81172161 50.3147253,8.63990232 C50.3147253,13.468083 46.3759463,17.2798046 41.674823,17.2798046 Z M41.674823,2.03291819 C37.9901587,2.03291819 34.9407814,5.08229548 34.9407814,8.76695971 C34.9407814,12.4516239 37.9901587,15.5010012 41.674823,15.5010012 C45.3594872,15.5010012 48.4088645,12.4516239 48.4088645,8.76695971 C48.4088645,5.08229548 45.3594872,2.03291819 41.674823,2.03291819 Z" id="Shape" fill="#7699EB"></path>
                            <path d="M41.674823,12.1975092 C39.7689621,12.1975092 38.1172161,10.6728205 38.1172161,8.63990232 C38.1172161,6.73404151 39.6419048,5.08229548 41.674823,5.08229548 C43.7077411,5.08229548 45.2324298,6.60698413 45.2324298,8.63990232 C45.2324298,10.6728205 43.5806838,12.1975092 41.674823,12.1975092 Z M41.674823,7.11521368 C40.7854212,7.11521368 40.0230769,7.877558 40.0230769,8.76695971 C40.0230769,9.65636142 40.7854212,10.4187057 41.674823,10.4187057 C42.5642247,10.4187057 43.326569,9.65636142 43.326569,8.76695971 C43.326569,7.877558 42.5642247,7.11521368 41.674823,7.11521368 Z" id="Shape" fill="#FF7F7F"></path>
                        </g>
                        <path d="M91.6344331,98.9115507 L61.394775,98.9115507 C60.8865454,98.9115507 60.3783159,98.5303785 60.3783159,97.8950916 C60.3783159,97.2598046 60.759488,96.8786325 61.394775,96.8786325 L91.6344331,96.8786325 C92.1426626,96.8786325 92.6508922,97.2598046 92.6508922,97.8950916 C92.6508922,98.5303785 92.1426626,98.9115507 91.6344331,98.9115507 Z" id="Path-Copy-35" fill="#7699EB" fill-rule="nonzero"></path>
                        <path d="M55.0419056,98.9115507 L30.2657151,98.9115507 C29.7574856,98.9115507 29.249256,98.5303785 29.249256,97.8950916 C29.249256,97.2598046 29.6304282,96.8786325 30.2657151,96.8786325 L55.0419056,96.8786325 C55.5501352,96.8786325 56.0583647,97.2598046 56.0583647,97.8950916 C56.0583647,98.5303785 55.5501352,98.9115507 55.0419056,98.9115507 Z" id="Path-Copy-36" fill="#7699EB" fill-rule="nonzero"></path>
                        <path d="M23.9128458,98.9115507 L17.9411486,98.9115507 C17.4329191,98.9115507 16.9246895,98.5303785 16.9246895,97.8950916 C16.9246895,97.2598046 17.3058617,96.8786325 17.9411486,96.8786325 L23.9128458,96.8786325 C24.4210753,96.8786325 24.9293049,97.2598046 24.9293049,97.8950916 C24.9293049,98.5303785 24.4210753,98.9115507 23.9128458,98.9115507 Z" id="Path-Copy-37" fill="#7699EB" fill-rule="nonzero"></path>
                        <path d="M84.0109899,106.534994 L69.0182182,106.534994 C68.5099886,106.534994 68.0017591,106.153822 68.0017591,105.518535 C68.0017591,104.883248 68.3829313,104.502076 69.0182182,104.502076 L84.0109899,104.502076 C84.5192194,104.502076 85.027449,104.883248 85.027449,105.518535 C85.027449,106.153822 84.5192194,106.534994 84.0109899,106.534994 Z" id="Path-Copy-38" fill="#7699EB" fill-rule="nonzero"></path>
                        <path d="M62.6653488,106.534994 L40.4303061,106.534994 C39.9220766,106.534994 39.413847,106.153822 39.413847,105.518535 C39.413847,104.883248 39.7950192,104.502076 40.4303061,104.502076 L62.6653488,104.502076 C63.1735784,104.502076 63.6818079,104.883248 63.6818079,105.518535 C63.6818079,106.153822 63.1735784,106.534994 62.6653488,106.534994 Z" id="Path-Copy-39" fill="#7699EB" fill-rule="nonzero"></path>
                        <path d="M34.0774368,106.534994 L11.5882792,106.534994 C11.0800497,106.534994 10.5718202,106.153822 10.5718202,105.518535 C10.5718202,104.883248 10.9529923,104.502076 11.5882792,104.502076 L34.0774368,104.502076 C34.5856663,104.502076 35.0938959,104.883248 35.0938959,105.518535 C35.0938959,106.153822 34.5856663,106.534994 34.0774368,106.534994 Z" id="Path-Copy-40" fill="#7699EB" fill-rule="nonzero"></path>
                        <path d="M50.2137249,53.2979487 L48.4349215,53.2979487 C47.9266919,53.2979487 47.4184624,52.9167766 47.4184624,52.2814896 C47.4184624,51.6462027 47.7996346,51.2650305 48.4349215,51.2650305 L50.2137249,51.2650305 C50.7219545,51.2650305 51.230184,51.6462027 51.230184,52.2814896 C51.230184,52.9167766 50.7219545,53.2979487 50.2137249,53.2979487 Z" id="Path-Copy-41" fill="#7699EB" fill-rule="nonzero"></path>
                        <path d="M56.0583647,53.2979487 L54.2795613,53.2979487 C53.7713318,53.2979487 53.2631022,52.9167766 53.2631022,52.2814896 C53.2631022,51.6462027 53.6442744,51.2650305 54.2795613,51.2650305 L56.0583647,51.2650305 C56.5665943,51.2650305 57.0748238,51.6462027 57.0748238,52.2814896 C57.0748238,52.9167766 56.5665943,53.2979487 56.0583647,53.2979487 Z" id="Path-Copy-42" fill="#7699EB" fill-rule="nonzero"></path>
                        <path d="M52.2466431,57.1096703 C51.7384136,57.1096703 51.230184,56.7284982 51.230184,56.0932112 L51.230184,54.3144078 C51.230184,53.8061783 51.6113562,53.2979487 52.2466431,53.2979487 C52.88193,53.2979487 53.2631022,53.6791209 53.2631022,54.3144078 L53.2631022,56.0932112 C53.2631022,56.6014408 52.7548727,57.1096703 52.2466431,57.1096703 Z" id="Path-Copy-43" fill="#7699EB" fill-rule="nonzero"></path>
                        <path d="M52.2466431,51.1379731 C51.7384136,51.1379731 51.230184,50.756801 51.230184,50.121514 L51.230184,48.3427106 C51.230184,47.8344811 51.6113562,47.3262515 52.2466431,47.3262515 C52.88193,47.3262515 53.2631022,47.7074237 53.2631022,48.3427106 L53.2631022,50.121514 C53.2631022,50.756801 52.7548727,51.1379731 52.2466431,51.1379731 Z" id="Path-Copy-44" fill="#7699EB" fill-rule="nonzero"></path>
                        <path d="M86.8749299,42.1268241 C87.6567516,39.3473277 88.0768263,36.4009607 88.0768263,33.3499389 C88.0768263,16.5086932 75.277582,2.85616606 59.4889142,2.85616606 C56.8039453,2.85616606 54.2054285,3.25098735 51.7416076,3.98916978" id="Path" stroke="#7699EB" stroke-width="2.5" stroke-linecap="round" stroke-linejoin="round"></path>
                        <polyline id="Path-3" stroke="#7699EB" stroke-width="2.5" stroke-linecap="round" stroke-linejoin="round" points="51.2920921 4.12703711 51.3079272 40.9736794 78.7054882 12.2827602"></polyline>
                        <polyline id="Path-2" stroke="#7699EB" stroke-width="2.5" stroke-linecap="round" stroke-linejoin="round" points="17.4142082 42.2601765 10.5718202 30.998828 17.6145237 30.8940555"></polyline>
                        <line x1="36.99829" y1="77.3356984" x2="48.6890363" y2="63.8437118" id="Path-5" stroke="#7699EB" stroke-width="2" stroke-linecap="round" stroke-linejoin="round"></line>
                        <line x1="52.0878887" y1="78.6062723" x2="64.1915042" y2="64.2584324" id="Path-5" stroke="#7699EB" stroke-width="2" stroke-linecap="round" stroke-linejoin="round" transform="translate(58.139696, 71.432352) scale(-1, 1) translate(-58.139696, -71.432352) "></line>
                        <path d="M17.8510379,59.7599642 C47.3037206,61.9329183 70.0408811,56.4111704 86.0625195,43.1947204 C87.3029192,46.2085209 87.5737227,50.5787917 86.8749299,56.3055329 C85.7821937,60.3026418 84.1429721,62.6498201 81.957265,63.3470678 C79.7715578,64.0443155 77.6185178,64.2098635 75.4981449,63.8437118 C42.7409911,64.2170333 25.7142455,64.2170333 24.4179082,63.8437118 C23.121571,63.4703904 21.7735799,62.9298713 20.3739352,62.2221548 L17.8510379,59.7599642 Z" id="Path-7" fill="#E9EEFF"></path>
                        <path d="M78.5768263,42.3086465 L25.1541156,42.3086465 C22.875941,42.3086465 20.813441,43.2320592 19.3204847,44.7250155 C17.8275283,46.2179719 16.9041156,48.2804719 16.9041156,50.5586465 L16.9041156,63.94955 L86.8268263,63.94955 L86.8268263,50.5586465 C86.8268263,48.2804719 85.9034136,46.2179719 84.4104572,44.7250155 C82.9175008,43.2320592 80.8550008,42.3086465 78.5768263,42.3086465 Z" id="Rectangle" stroke="#7699EB" stroke-width="2.5" transform="translate(51.865471, 53.129098) rotate(-180.000000) translate(-51.865471, -53.129098) "></path>
                    </g>
                </g>
            </g>
        </g>
    </g>
</svg>