<?xml version="1.0" encoding="UTF-8"?>
<svg width="120px" height="111px" viewBox="0 0 120 111" version="1.1" xmlns="http://www.w3.org/2000/svg" xmlns:xlink="http://www.w3.org/1999/xlink">
    <!-- Generator: Sketch 64 (93537) - https://sketch.com -->
    <title>icon-Expertenberatung@2x</title>
    <desc>Created with Sketch.</desc>
    <g id="Landing" stroke="none" stroke-width="1" fill="none" fill-rule="evenodd">
        <g id="Topbaby-UI-Main" transform="translate(-250.000000, -1027.000000)" fill-rule="nonzero">
            <g id="2-screen" transform="translate(220.000000, 681.000000)">
                <g id="Expertenberatung" transform="translate(0.000000, 316.000000)">
                    <g id="icon-Expertenberatung" transform="translate(30.000000, 30.000000)">
                        <ellipse id="Oval-Copy-13" fill="#E9EEFF" transform="translate(20.577503, 53.727407) rotate(-180.000000) translate(-20.577503, -53.727407) " cx="20.5775032" cy="53.7274074" rx="20.3935017" ry="20.1496296"></ellipse>
                        <ellipse id="Oval-Copy-14" fill="#E9EEFF" transform="translate(76.118581, 17.558963) rotate(-180.000000) translate(-76.118581, -17.558963) " cx="76.1185808" cy="17.558963" rx="17.4801443" ry="17.2711111"></ellipse>
                        <circle id="Oval-Copy-15" fill="#E9EEFF" transform="translate(90.429630, 68.533333) rotate(-180.000000) translate(-90.429630, -68.533333) " cx="90.4296296" cy="68.5333333" r="29"></circle>
                        <path d="M20.1613093,80.2296296 L73.101175,80.2296296 L73.101175,58.8179894 C73.101175,54.989418 70.3071265,51.8698413 66.4836918,51.1608466 L58.8368223,49.8846561 C58.3956567,49.7428571 57.807436,49.6010582 57.3662704,49.4592593 L36.043269,49.4592593 C35.6021035,49.6010582 35.0138827,49.7428571 34.5727172,49.8846561 L26.9258477,51.1608466 C23.102413,51.8698413 20.3083645,54.989418 20.3083645,58.8179894 L20.3083645,80.2296296 L20.1613093,80.2296296 Z" id="Path-Copy" fill="#FFFFFF"></path>
                        <path d="M73.101175,60.3777778 L55.2630036,60.3777778 C41.2578277,60.3777778 29.3165725,68.6021164 24.1567709,80.2296296 L73.101175,80.2296296 L73.101175,60.3777778 Z" id="Path-Copy-2" fill="#E9EEFF"></path>
                        <path d="M72.9311553,81.2222222 L20.331329,81.2222222 C19.7468864,81.2222222 19.1624439,80.786146 19.1624439,80.0593522 L19.1624439,57.9648226 C19.1624439,53.1679839 22.669099,49.0979389 27.3446391,48.2257865 L34.6501706,46.9175577 C35.0885025,46.9175577 35.3807237,46.772199 35.8190556,46.6268402 C35.9651662,46.6268402 36.1112769,46.4814815 36.2573875,46.4814815 L57.0050968,46.4814815 C57.1512074,46.4814815 57.297318,46.4814815 57.4434287,46.6268402 C57.7356499,46.772199 58.1739818,46.9175577 58.6123137,46.9175577 L65.9178451,48.2257865 C70.5933853,49.0979389 74.1000404,53.1679839 74.1000404,57.9648226 L74.1000404,80.0593522 C74.1000404,80.786146 73.5155978,81.2222222 72.9311553,81.2222222 Z M21.500214,79.041841 L71.9083809,79.041841 L71.9083809,57.9648226 C71.9083809,54.1854951 69.2783896,51.1329614 65.4795133,50.4061677 L58.1739818,49.0979389 C57.7356499,48.9525802 57.1512074,48.8072214 56.7128755,48.6618627 L36.5496087,48.6618627 C36.1112769,48.8072214 35.672945,48.9525802 35.0885025,49.0979389 L27.782971,50.4061677 C24.1302053,50.9876027 21.3541034,54.1854951 21.3541034,57.9648226 L21.3541034,79.041841 L21.500214,79.041841 Z" id="Shape-Copy" fill="#7699EB"></path>
                        <path d="M40.2793024,41.5185185 L39.5407047,44.4301235 C39.0975461,46.1770864 37.9157899,47.6328889 36.1431555,48.3607901 L46.6312421,52.437037 L57.1193287,48.3607901 C55.4944139,47.6328889 54.1649381,46.1770864 53.7217796,44.4301235 L52.9831819,41.5185185 L40.2793024,41.5185185 Z" id="Path-Copy-3" fill="#FFFFFF"></path>
                        <path d="M57.1193287,48.3607901 C55.4712008,47.6328889 54.1227326,46.1770864 53.6732431,44.4301235 L52.9240941,41.5185185 L45.8820931,41.5185185 L44.5336248,46.4682469 C44.0841354,48.0696296 43.1851565,49.5254321 42.1363479,50.8356543 L46.4814123,52.437037 L57.1193287,48.3607901 Z" id="Path-Copy-4" fill="#E9EEFF"></path>
                        <path d="M45.9108655,53.4296296 C45.7619359,53.4296296 45.6130062,53.4296296 45.4640766,53.2878307 L34.8900729,49.3174603 C34.443284,49.1756614 34.1454248,48.7502646 34.1454248,48.3248677 C34.1454248,47.8994709 34.443284,47.4740741 34.7411433,47.3322751 C36.08151,46.7650794 37.1240174,45.6306878 37.4218766,44.2126984 L38.1665248,41.3767196 C38.3154544,40.9513228 38.7622433,40.5259259 39.2090322,40.5259259 L52.0169803,40.5259259 C52.4637692,40.5259259 52.9105581,40.8095238 53.0594877,41.3767196 L53.8041359,44.2126984 C54.1019951,45.6306878 55.1445025,46.7650794 56.4848692,47.3322751 C56.9316581,47.4740741 57.2295174,47.8994709 57.0805877,48.3248677 C57.0805877,48.7502646 56.7827285,49.1756614 56.3359396,49.3174603 L45.7619359,53.2878307 C46.2087248,53.2878307 46.0597951,53.4296296 45.9108655,53.4296296 Z M37.7197359,48.0412698 L45.9108655,51.1608466 L54.1019951,48.0412698 C53.0594877,47.1904762 52.3148396,46.0560847 52.0169803,44.7798942 L51.4212618,42.794709 L40.2515396,42.794709 L39.6558211,44.7798942 C39.5068914,46.0560847 38.7622433,47.1904762 37.7197359,48.0412698 Z" id="Shape-Copy-2" fill="#7699EB"></path>
                        <path d="M59.1170595,29.4419753 C59.1170595,37.6929012 53.5351647,44.4962963 46.6312421,44.4962963 C39.7273196,44.4962963 34.1454248,37.6929012 34.1454248,29.4419753 C34.1454248,21.0462963 39.7273196,16.7037037 46.6312421,16.7037037 C53.3882727,16.7037037 59.1170595,21.0462963 59.1170595,29.4419753 Z" id="Path-Copy-5" fill="#FFFFFF"></path>
                        <path d="M59.1170595,29.4352815 C59.1170595,25.5624492 57.926922,22.6936844 55.8441814,20.5421109 C54.3565096,19.968358 52.5713033,19.6814815 50.7860971,19.6814815 C43.7940394,19.6814815 38.1408863,23.9846286 38.1408863,32.3040462 C38.1408863,36.8940698 39.9260926,40.9103404 42.6039019,43.7791051 C43.7940394,44.2094198 44.9841769,44.4962963 46.3230815,44.4962963 C53.3151393,44.3528581 59.1170595,37.611261 59.1170595,29.4352815 Z" id="Path-Copy-6" fill="#E9EEFF"></path>
                        <path d="M46.6312421,45.4888889 C39.2364161,45.4888889 33.1465594,38.2961889 33.1465594,29.377241 C33.1465594,21.1775631 38.5114332,15.7111111 46.6312421,15.7111111 C54.7510511,15.7111111 60.1159249,21.1775631 60.1159249,29.377241 C60.1159249,38.2961889 54.0260682,45.4888889 46.6312421,45.4888889 Z M46.6312421,17.8689211 C39.8164025,17.8689211 35.3215082,22.4722491 35.3215082,29.377241 C35.3215082,37.001503 40.3963888,43.3310789 46.6312421,43.3310789 C52.8660955,43.3310789 57.9409761,37.145357 57.9409761,29.377241 C57.9409761,22.4722491 53.4460818,17.8689211 46.6312421,17.8689211 Z" id="Shape-Copy-3" fill="#7699EB"></path>
                        <path d="M31.1488286,81.2222222 C30.6493959,81.2222222 30.1499632,80.7996997 30.1499632,80.0954955 L30.1499632,61.5045045 C30.1499632,60.9411411 30.5245377,60.3777778 31.1488286,60.3777778 C31.7731195,60.3777778 32.147694,60.8003003 32.147694,61.5045045 L32.147694,80.0954955 C32.147694,80.7996997 31.6482613,81.2222222 31.1488286,81.2222222 Z" id="Path-Copy-7" fill="#7699EB"></path>
                        <path d="M46.7781341,25.9950559 C41.4900232,24.1012282 37.2301561,24.5382653 34.7329926,25.2666606 C34.4392087,26.5777721 34.1454248,27.8888837 34.1454248,29.3456742 C34.1454248,37.6493806 39.7273196,44.4962963 46.6312421,44.4962963 C53.5351647,44.4962963 59.1170595,37.6493806 59.1170595,29.3456742 C59.1170595,28.3259208 58.9701675,27.3061674 58.8232756,26.286414 C56.1792201,27.0148093 51.4786771,27.7432046 46.7781341,25.9950559 Z" id="Path-Copy-8" fill="#FFFFFF"></path>
                        <path d="M59.1170595,29.4088889 C59.1170595,28.3933903 58.9696859,27.3778917 58.8223123,26.3623932 C55.8748407,27.0877493 51.1588861,27.6680342 46.4429314,26.0722507 C46.0008107,25.9271795 45.55869,25.7821083 44.9691956,25.637037 C42.6112183,27.8131054 41.1374825,31.0046724 41.1374825,35.2117379 C41.1374825,38.5483761 42.021724,41.5948718 43.6428334,44.0610826 C44.5270749,44.3512251 45.4113164,44.4962963 46.4429314,44.4962963 C53.3694898,44.4962963 59.1170595,37.6779487 59.1170595,29.4088889 Z" id="Path-Copy-9" fill="#E9EEFF"></path>
                        <path d="M46.7028503,45.4888889 C39.2687553,45.4888889 33.1465594,38.2662314 33.1465594,29.3101361 C33.1465594,27.7211515 33.2923259,26.27662 33.7296257,24.9765416 C33.8753922,24.5431822 34.1669254,24.2542759 34.4584585,24.2542759 C37.2280233,23.5320101 41.7467869,23.0986507 46.9943834,25.1209948 C51.3673805,26.7099794 55.7403775,26.1321668 58.5099424,25.4099011 C58.8014755,25.2654479 59.0930086,25.4099011 59.3845418,25.5543542 C59.6760749,25.6988074 59.8218415,25.9877137 59.8218415,26.27662 C59.967608,27.287792 60.1133746,28.2989641 60.1133746,29.4545893 C60.2591412,38.2662314 54.1369453,45.4888889 46.7028503,45.4888889 Z M35.624591,26.1321668 C35.3330579,27.1433389 35.3330579,28.1545109 35.3330579,29.3101361 C35.3330579,36.9661531 40.4348878,43.3220916 46.7028503,43.3220916 C52.9708127,43.3220916 58.0726426,37.1106062 58.0726426,29.3101361 C58.0726426,28.7323235 58.0726426,28.1545109 57.9268761,27.7211515 C54.8657781,28.2989641 50.6385476,28.5878704 46.2655506,26.9988857 L46.2655506,26.9988857 C41.8925535,25.5543542 38.2483893,25.6988074 35.624591,26.1321668 Z" id="Shape-Copy-4" fill="#7699EB"></path>
                        <polygon id="Path-Copy-10" fill="#FFFFFF" points="46.1318094 52.6148148 38.1127493 58.3925926 36.1431555 48.4666667"></polygon>
                        <path d="M38.3209393,59.3851852 C38.1723241,59.3851852 38.023709,59.3851852 37.8750938,59.2393173 C37.5778635,59.0934495 37.2806332,58.8017137 37.132018,58.509978 L35.2000208,48.7368309 C35.0514057,48.2992273 35.2000208,48.0074916 35.6458663,47.7157559 C35.9430967,47.4240201 36.3889422,47.4240201 36.8347877,47.569888 L47.3864644,51.6541883 C47.8323099,51.8000561 47.9809251,52.0917919 48.1295402,52.5293955 C48.1295402,52.9669991 47.9809251,53.2587348 47.6836947,53.5504705 L39.2126303,59.0934495 C38.7667848,59.3851852 38.4695545,59.3851852 38.3209393,59.3851852 Z M37.7264787,50.3413775 L39.0640151,56.4678279 L44.4141611,52.9669991 L37.7264787,50.3413775 Z" id="Shape-Copy-5" fill="#7699EB"></path>
                        <polygon id="Path-Copy-11" fill="#FFFFFF" points="46.1318094 52.6148148 54.1508696 58.3925926 56.1204633 48.4666667"></polygon>
                        <path d="M54.6957753,59.3851852 C54.5469745,59.3851852 54.2493729,59.3851852 54.1005721,59.2375088 L45.6189255,53.6258069 C45.3213239,53.3304542 45.0237222,53.0351015 45.172523,52.5920724 C45.172523,52.1490433 45.4701247,51.8536905 45.9165271,51.7060142 L56.4813851,47.5710759 C56.9277876,47.4233996 57.2253892,47.4233996 57.6717917,47.7187523 C57.9693933,48.014105 58.1181941,48.4571341 58.1181941,48.7524868 L56.1837835,58.6468034 C56.1837835,58.9421561 55.8861819,59.3851852 55.4397794,59.3851852 C54.993377,59.3851852 54.8445761,59.3851852 54.6957753,59.3851852 Z M48.5949418,52.8874251 L53.9517712,56.4316579 L55.2909786,50.2292505 L48.5949418,52.8874251 Z" id="Shape-Copy-6" fill="#7699EB"></path>
                        <path d="M46.0652184,53.4296296 C45.7988543,53.4296296 45.5324902,53.2903184 45.3993082,53.1510071 C45.2661261,52.8723847 45.1329441,52.7330734 45.1329441,52.4544509 C45.1329441,52.1758285 45.2661261,51.897206 45.3993082,51.7578947 C45.7988543,51.339961 46.4647646,51.339961 46.8643107,51.7578947 C46.9974928,52.0365172 47.1306748,52.1758285 47.1306748,52.4544509 C47.1306748,52.7330734 46.9974928,53.0116959 46.8643107,53.1510071 C46.5979466,53.2903184 46.3315825,53.4296296 46.0652184,53.4296296 Z" id="Path-Copy-12" fill="#7699EB"></path>
                        <path d="M46.0652184,81.2222222 C45.7988543,81.2222222 45.5324902,81.082911 45.3993082,80.9435997 C45.2661261,80.6649773 45.1329441,80.525666 45.1329441,80.2470435 C45.1329441,79.9684211 45.2661261,79.6897986 45.3993082,79.5504873 C45.7988543,79.1325536 46.4647646,79.1325536 46.8643107,79.5504873 C46.9974928,79.6897986 47.1306748,79.9684211 47.1306748,80.2470435 C47.1306748,80.525666 46.9974928,80.8042885 46.8643107,80.9435997 C46.5979466,81.082911 46.3315825,81.2222222 46.0652184,81.2222222 Z" id="Path-Copy-13" fill="#21365F"></path>
                        <path d="M64.1113865,41.0222222 C64.1113865,52.766791 70.4884565,62.362963 82.6628629,62.362963 C94.6923359,62.362963 101.069406,52.766791 101.069406,41.0222222 C101.069406,29.2776535 94.6923359,19.6814815 82.6628629,19.6814815 C70.4884565,19.6814815 64.1113865,29.134427 64.1113865,41.0222222 Z" id="Path-Copy-14" fill="#FFFFFF"></path>
                        <path d="M102.068271,41.153029 C102.068271,36.1708297 100.884431,31.6156761 98.5167499,28.0569624 C95.8531088,26.4911283 92.7455276,25.637037 89.0460262,25.637037 C76.7636814,25.637037 70.1045788,35.1743899 70.1045788,46.846971 C70.1045788,51.8291703 71.2884193,56.3843239 73.6561002,59.9430376 C76.3197412,61.5088717 79.4273224,62.362963 83.1268239,62.362963 C95.5571487,62.2206144 102.068271,52.8256101 102.068271,41.153029 Z" id="Path-Copy-15" fill="#E9EEFF"></path>
                        <path d="M82.5903962,63.3555556 C70.9036711,63.3555556 63.1125211,54.3363248 63.1125211,41.0222222 C63.1125211,27.7081197 70.9036711,18.6888889 82.5903962,18.6888889 C94.2771212,18.6888889 102.068271,27.7081197 102.068271,41.0222222 C102.068271,54.3363248 94.2771212,63.3555556 82.5903962,63.3555556 Z M82.5903962,20.6931624 C72.0579156,20.6931624 65.2767294,28.567094 65.2767294,40.8790598 C65.2767294,53.1910256 72.0579156,61.0649573 82.5903962,61.0649573 C93.1228768,61.0649573 99.9040629,53.1910256 99.9040629,40.8790598 C99.9040629,28.567094 93.1228768,20.6931624 82.5903962,20.6931624 Z" id="Shape-Copy-8" fill="#7699EB"></path>
                        <path d="M62.1136557,81.2222222 C61.614223,81.2222222 61.1147903,80.7887482 61.1147903,80.0662916 L61.1147903,59.5485232 C61.1147903,58.9705579 61.4893648,58.3925926 62.1136557,58.3925926 C62.7379465,58.3925926 63.1125211,58.8260666 63.1125211,59.5485232 L63.1125211,80.0662916 C63.1125211,80.7887482 62.6130884,81.2222222 62.1136557,81.2222222 Z" id="Path-Copy-16" fill="#21365F"></path>
                        <path d="M108.061464,80.2296296 L108.061464,64.9361514 C108.061464,59.9839775 104.389164,55.6144122 99.3948374,54.7404992 L94.2536185,53.8665862 C93.8129426,53.720934 93.3722667,53.720934 92.9315908,53.4296296 L73.2480669,53.4296296 C72.807391,53.5752818 72.3667151,53.720934 71.9260392,53.8665862 L66.7848203,54.7404992 C61.7904933,55.6144122 58.1181941,59.8383253 58.1181941,64.9361514 L58.1181941,80.2296296 L108.061464,80.2296296 Z" id="Path-Copy-17" fill="#FFFFFF"></path>
                        <path d="M81.9482684,53.5752818 L79.0943673,55.3231079 C75.3842959,57.6535427 73.101175,61.7318035 73.101175,66.2470209 L73.101175,80.2296296 L78.8089772,80.2296296 L78.8089772,66.5383253 C78.8089772,63.6252818 80.2359277,61.0035427 82.6617437,59.4013688 L92.0796174,53.4296296 L81.9482684,53.4296296 L81.9482684,53.5752818 Z" id="Path-Copy-18" fill="#E9EEFF"></path>
                        <path d="M104.354737,57.4 L91.4553265,65.105 C89.9726357,65.9611111 89.0830212,67.387963 89.0830212,69.1001852 L89.0830212,80.2296296 L108.061464,80.2296296 L108.061464,65.2476852 C108.061464,62.1086111 106.578773,59.2549074 104.354737,57.4 Z" id="Path-Copy-19" fill="#E9EEFF"></path>
                        <path d="M108.013859,81.2222222 L58.2893179,81.2222222 C57.7043233,81.2222222 57.1193287,80.7882747 57.1193287,80.0650288 L57.1193287,64.8768658 C57.1193287,59.3801973 61.0680423,54.6067746 66.625491,53.7388796 L71.7441937,52.8709846 C72.036691,52.8709846 72.475437,52.7263354 72.7679343,52.5816862 C72.9141829,52.5816862 73.0604316,52.437037 73.2066802,52.437037 L92.9502479,52.437037 C93.0964966,52.437037 93.2427452,52.437037 93.3889939,52.5816862 C93.6814912,52.7263354 94.1202371,52.8709846 94.4127344,52.8709846 L99.5314372,53.7388796 C105.088886,54.7514238 109.037599,59.3801973 109.037599,64.8768658 L109.037599,80.0650288 C109.183848,80.7882747 108.598853,81.2222222 108.013859,81.2222222 Z M59.4593071,79.0524846 L106.990118,79.0524846 L106.990118,64.8768658 C106.990118,60.3927415 103.772648,56.631863 99.2389399,55.9086172 L94.1202371,55.0407221 C93.6814912,54.896073 93.2427452,54.896073 92.8039993,54.6067746 L73.6454261,54.6067746 C73.2066802,54.7514238 72.7679343,54.896073 72.3291883,55.0407221 L67.2104856,55.9086172 C62.8230261,56.631863 59.4593071,60.3927415 59.4593071,64.8768658 L59.4593071,79.0524846 L59.4593071,79.0524846 Z" id="Shape-Copy-9" fill="#7699EB"></path>
                        <path d="M76.977369,47.4740741 L76.2319471,50.1365577 C75.7846939,51.6779956 74.5920188,53.0793028 73.101175,53.6398257 L83.0898289,59.3851852 L93.0784828,53.6398257 C91.5876389,52.9391721 90.3949638,51.6779956 89.9477106,50.1365577 L89.2022887,47.4740741 L76.977369,47.4740741 L76.977369,47.4740741 Z" id="Path-Copy-20" fill="#FFFFFF"></path>
                        <path d="M93.0784828,53.6398257 C91.5859253,52.9391721 90.3918793,51.6779956 89.944112,50.1365577 L89.1978333,47.4740741 L84.1231379,47.4740741 L82.6305804,52.7990414 C82.1828132,54.6207407 81.2872787,56.3023094 80.0932327,57.7036166 L83.0783476,59.3851852 L93.0784828,53.6398257 Z" id="Path-Copy-21" fill="#E9EEFF"></path>
                        <path d="M83.2383088,61.3703704 C83.0898289,61.3703704 82.7928689,61.3703704 82.6443889,61.2214815 L72.6962295,55.117037 C72.3992696,54.9681481 72.1023096,54.5214815 72.1023096,54.0748148 C72.1023096,53.6281481 72.3992696,53.3303704 72.6962295,53.1814815 C74.0325494,52.5859259 74.9234294,51.5437037 75.2203894,50.2037037 L75.9627893,47.3748148 C76.1112693,46.9281481 76.5567093,46.4814815 77.0021493,46.4814815 L89.1775085,46.4814815 C89.6229484,46.4814815 90.0683884,46.7792593 90.2168684,47.3748148 L90.9592683,50.2037037 C91.2562283,51.5437037 92.2955883,52.7348148 93.4834282,53.1814815 C93.9288682,53.3303704 94.0773481,53.777037 94.0773481,54.0748148 C94.0773481,54.5214815 93.9288682,54.8192593 93.4834282,55.117037 L83.5352688,61.2214815 C83.6837488,61.3703704 83.3867888,61.3703704 83.2383088,61.3703704 Z M75.3688694,54.2237037 L83.2383088,58.9881481 L91.1077483,54.2237037 C90.0683884,53.3303704 89.3259885,52.1392593 89.0290285,50.7992593 L88.5835885,48.8637037 L78.1899892,48.8637037 L77.7445492,50.7992593 C77.1506292,52.1392593 76.4082293,53.3303704 75.3688694,54.2237037 Z" id="Shape-Copy-10" fill="#7699EB"></path>
                        <path d="M95.0762135,36.4793577 C95.0762135,44.1784871 89.7489315,50.4518519 83.0898289,50.4518519 C76.4307263,50.4518519 71.1034442,44.1784871 71.1034442,36.4793577 C71.1034442,28.7802282 76.4307263,29.635687 83.0898289,29.635687 C89.7489315,29.635687 95.0762135,28.7802282 95.0762135,36.4793577 Z" id="Path-Copy-22" fill="#FFFFFF"></path>
                        <path d="M92.3101248,32.2712786 C92.8991992,32.2712786 93.4882737,32.2712786 94.0773481,32.2712786 C92.3101248,29.0667398 88.0393349,29.6493832 83.032202,29.6493832 C76.4051143,29.6493832 71.1034442,28.6297572 71.1034442,36.6411042 C71.1034442,42.1762166 73.7542793,46.9830248 77.5832632,49.4592593 C77.1414574,47.8569899 76.9941888,46.1090596 76.9941888,44.2154685 C76.9941888,33.8735479 83.9158137,32.2712786 92.3101248,32.2712786 Z" id="Path-Copy-23" fill="#FFFFFF"></path>
                        <path d="M95.0762135,35.8653935 C95.0762135,33.95 94.7814664,32.6239583 94.191972,31.5925926 C93.6024777,31.5925926 93.0129834,31.5925926 92.4234891,31.5925926 C84.0231949,31.5925926 77.0966365,33.2133102 77.0966365,43.5269676 C77.0966365,45.2950231 77.3913837,47.0630787 77.6861308,48.8311343 C79.3072403,49.8625 81.0757232,50.4518519 82.9915798,50.4518519 C89.7707646,50.3045139 95.0762135,43.8216435 95.0762135,35.8653935 Z" id="Path-Copy-24" fill="#E9EEFF"></path>
                        <path d="M83.1626268,51.4444444 C75.8916683,51.4444444 70.1045788,44.7954766 70.1045788,36.4488998 C70.1045788,33.7610192 70.6981264,31.7804756 72.0336086,30.507269 C74.1110253,28.5267253 77.3755373,28.5267253 81.0852101,28.6681927 C82.4206923,28.6681927 83.7561744,28.6681927 85.0916566,28.6681927 C88.8013294,28.6681927 92.0658414,28.5267253 94.1432581,30.507269 C95.4787403,31.7804756 96.0722879,33.7610192 96.0722879,36.4488998 C96.2206748,44.6540092 90.4335854,51.4444444 83.1626268,51.4444444 Z M79.4529541,30.7902038 C76.9303766,30.7902038 74.8529599,30.9316712 73.6658646,32.0634104 C72.7755432,32.9122148 72.3303824,34.3268888 72.3303824,36.4488998 C72.3303824,43.5222699 77.2271504,49.3224334 83.1626268,49.3224334 C89.0981032,49.3224334 93.9948712,43.5222699 93.9948712,36.4488998 C93.9948712,34.3268888 93.5497105,32.9122148 92.659389,32.0634104 C91.1755199,30.7902038 88.3561686,30.7902038 85.0916566,30.7902038 C83.7561744,30.7902038 82.4206923,30.7902038 81.0852101,30.7902038 C80.4916624,30.7902038 79.8981148,30.7902038 79.4529541,30.7902038 Z" id="Shape-Copy-11" fill="#7699EB"></path>
                        <path d="M97.0739443,82.2148148 C96.5745116,82.2148148 96.0750789,81.7707602 96.0750789,81.0306693 L96.0750789,66.5248863 C96.0750789,65.9328135 96.4496534,65.3407407 97.0739443,65.3407407 C97.6982352,65.3407407 98.0728097,65.7847953 98.0728097,66.5248863 L98.0728097,81.0306693 C98.0728097,81.7707602 97.573377,82.2148148 97.0739443,82.2148148 Z" id="Path-Copy-25" fill="#7699EB"></path>
                        <path d="M68.106848,82.2148148 C67.6074153,82.2148148 67.1079826,81.7707602 67.1079826,81.0306693 L67.1079826,66.5248863 C67.1079826,65.9328135 67.4825571,65.3407407 68.106848,65.3407407 C68.7311389,65.3407407 69.1057134,65.7847953 69.1057134,66.5248863 L69.1057134,81.0306693 C68.9808552,81.7707602 68.6062807,82.2148148 68.106848,82.2148148 Z" id="Path-Copy-26" fill="#7699EB"></path>
                        <path d="M78.2585246,81.2222222 C77.6775806,81.2222222 77.0966365,80.788363 77.0966365,80.0652644 L77.0966365,66.4710102 C77.0966365,63.2893762 78.8394687,60.252362 81.5989529,58.5169253 L91.4750019,52.5875165 C92.0559459,52.2982771 92.63689,52.4428968 92.927362,52.876756 C93.217834,53.3106151 93.072598,54.0337138 92.63689,54.3229532 L82.7608411,60.252362 C80.5823009,61.5539395 79.2751767,63.8678551 79.2751767,66.3263905 L79.2751767,79.9206447 C79.2751767,80.788363 78.8394687,81.2222222 78.2585246,81.2222222 Z" id="Path-Copy-27" fill="#7699EB"></path>
                        <path d="M109.590976,86.1851852 L18.6317967,86.1851852 C17.7515466,86.1851852 17.1647131,85.5896296 17.1647131,84.6962963 L17.1647131,81.7185185 C17.1647131,80.8251852 17.7515466,80.2296296 18.6317967,80.2296296 L109.590976,80.2296296 C110.471226,80.2296296 111.05806,80.8251852 111.05806,81.7185185 L111.05806,84.6962963 C111.05806,85.4407407 110.471226,86.1851852 109.590976,86.1851852 Z" id="Path-Copy-28" fill="#FFFFFF"></path>
                        <path d="M109.596757,86.1851852 L32.147694,86.1851852 L32.147694,86.1851852 C32.147694,84.5474074 33.4628668,83.2074074 35.0703001,83.2074074 L111.05806,83.2074074 L111.05806,84.6962963 C111.05806,85.4407407 110.473539,86.1851852 109.596757,86.1851852 Z" id="Path-Copy-29" fill="#E9EEFF"></path>
                        <rect id="Rectangle-Copy" fill="#FFFFFF" x="21.1601747" y="86.1851852" width="84.9035581" height="22.8296296"></rect>
                        <path d="M106.063733,110.007407 L36.1431555,110.007407 L36.1431555,110.007407 C36.1431555,101.818519 42.6982097,95.1185185 50.7099425,95.1185185 L106.063733,95.1185185 L106.063733,110.007407 Z" id="Path-Copy-30" fill="#E9EEFF"></path>
                        <path d="M109.425768,87.1777778 L18.7970054,87.1777778 C17.3352511,87.1777778 16.1658478,86.0433862 16.1658478,84.6253968 L16.1658478,81.789418 C16.1658478,80.3714286 17.3352511,79.237037 18.7970054,79.237037 L109.425768,79.237037 C110.887522,79.237037 112.056925,80.3714286 112.056925,81.789418 L112.056925,84.6253968 C112.056925,86.0433862 110.887522,87.1777778 109.425768,87.1777778 Z M18.7970054,81.5058201 C18.6508299,81.5058201 18.3584791,81.647619 18.3584791,81.9312169 L18.3584791,84.7671958 C18.3584791,84.9089947 18.5046545,85.1925926 18.7970054,85.1925926 L109.425768,85.1925926 C109.571943,85.1925926 109.864294,85.0507937 109.864294,84.7671958 L109.864294,81.9312169 C109.864294,81.789418 109.718118,81.5058201 109.425768,81.5058201 L18.7970054,81.5058201 Z" id="Shape-Copy-12" fill="#7699EB"></path>
                        <path d="M105.896138,111 L21.3277696,111 C20.7445394,111 20.1613093,110.560101 20.1613093,109.826936 L20.1613093,86.3656566 C20.1613093,85.7791246 20.5987319,85.1925926 21.3277696,85.1925926 L105.896138,85.1925926 C106.479368,85.1925926 107.062598,85.6324916 107.062598,86.3656566 L107.062598,109.826936 C107.062598,110.560101 106.479368,111 105.896138,111 Z M22.4942298,108.800505 L104.875485,108.800505 L104.875485,87.5387205 L22.4942298,87.5387205 L22.4942298,108.800505 Z" id="Shape-Copy-13" fill="#7699EB"></path>
                        <path d="M32.147694,106.037037 C31.6482613,106.037037 31.1488286,105.61164 31.1488286,104.902646 L31.1488286,99.2306878 C31.1488286,98.6634921 31.5234031,98.0962963 32.147694,98.0962963 C32.7719849,98.0962963 33.1465594,98.5216931 33.1465594,99.2306878 L33.1465594,104.902646 C33.0217012,105.61164 32.6471267,106.037037 32.147694,106.037037 Z" id="Path-Copy-31" fill="#7699EB"></path>
                        <path d="M35.0015951,103.059259 L29.2937929,103.059259 C28.7230127,103.059259 28.1522324,102.687037 28.1522324,102.066667 C28.1522324,101.446296 28.5803176,101.074074 29.2937929,101.074074 L35.0015951,101.074074 C35.5723753,101.074074 36.1431555,101.446296 36.1431555,102.066667 C36.1431555,102.687037 35.5723753,103.059259 35.0015951,103.059259 Z" id="Path-Copy-32" fill="#7699EB"></path>
                        <ellipse id="Oval-Copy-9" fill="#7699EB" cx="41.1374825" cy="102.066667" rx="1" ry="1"></ellipse>
                        <ellipse id="Oval-Copy-17" fill="#FF7F7F" cx="46.1318094" cy="59.3851852" rx="1" ry="1"></ellipse>
                        <ellipse id="Oval-Copy-18" fill="#FF7F7F" cx="46.1318094" cy="65.3407407" rx="1" ry="1"></ellipse>
                        <ellipse id="Oval-Copy-19" fill="#FF7F7F" cx="46.1318094" cy="71.2962963" rx="1" ry="1"></ellipse>
                        <ellipse id="Oval-Copy-10" fill="#7699EB" cx="46.1318094" cy="102.066667" rx="1" ry="1"></ellipse>
                        <ellipse id="Oval-Copy-11" fill="#7699EB" cx="51.1261364" cy="102.066667" rx="1" ry="1"></ellipse>
                        <ellipse id="Oval-Copy-12" fill="#7699EB" cx="60.1159249" cy="102.066667" rx="1" ry="1"></ellipse>
                        <path d="M97.8695008,93.1333333 L83.2931377,93.1333333 C82.6920506,93.1333333 82.0909635,92.7611111 82.0909635,92.1407407 C82.0909635,91.5203704 82.5417788,91.1481481 83.2931377,91.1481481 L97.8695008,91.1481481 C98.470588,91.1481481 99.0716751,91.5203704 99.0716751,92.1407407 C99.0716751,92.7611111 98.470588,93.1333333 97.8695008,93.1333333 Z" id="Path-Copy-33" fill="#FF7F7F"></path>
                        <path d="M77.8649945,93.1333333 L74.3305477,93.1333333 C73.7158614,93.1333333 73.101175,92.7611111 73.101175,92.1407407 C73.101175,91.5203704 73.5621898,91.1481481 74.3305477,91.1481481 L77.8649945,91.1481481 C78.4796809,91.1481481 79.0943673,91.5203704 79.0943673,92.1407407 C79.0943673,92.7611111 78.4796809,93.1333333 77.8649945,93.1333333 Z" id="Path-Copy-34" fill="#FF7F7F"></path>
                    </g>
                </g>
            </g>
        </g>
    </g>
</svg>